<?xml version="1.0" encoding="utf-8"?>
<!-- Generator: Adobe Illustrator 27.5.0, SVG Export Plug-In . SVG Version: 6.00 Build 0)  -->
<svg version="1.1" xmlns="http://www.w3.org/2000/svg" xmlns:xlink="http://www.w3.org/1999/xlink" x="0px" y="0px"
	 viewBox="0 0 1200 1200" style="enable-background:new 0 0 1200 1200;" xml:space="preserve">
<g id="Background">
	<rect transform="matrix(-1.836970e-16 1 -1 -1.836970e-16 1200 1.136868e-13)" style="fill:#F5F5F5;" width="1200" height="1200"/>
</g>
<g id="Graphic_Element">
	<g>
		<path d="M439.893,952.638c14.844-7.988,30.331-21.883,43.606-39.126c29.953-38.903,38.417-80.091,19.687-95.809
			c-18.728-15.719-55.441,1.767-85.394,40.67c-13.276,17.243-22.945,36.019-27.227,52.87c-4.944,19.461-2.266,34.709,7.539,42.937
			c1.899,1.594,3.986,2.858,6.242,3.794C413.744,961.872,426.071,960.076,439.893,952.638z M408.902,915.436
			c3.512-13.822,12.027-30.193,23.364-44.917c11.337-14.724,24.822-26.926,36.996-33.478c8.394-4.517,15.768-6.069,19.975-4.323
			c0.615,0.255,1.163,0.581,1.635,0.978c3.71,3.114,4.292,11.832,1.517,22.754c-3.511,13.821-12.028,30.193-23.364,44.917
			c-11.337,14.724-24.822,26.926-36.996,33.478c-9.62,5.177-17.901,6.458-21.611,3.344
			C406.709,935.075,406.127,926.356,408.902,915.436z"/>
		<path d="M508.277,934.306c20.564-26.708,34.392-56.633,38.938-84.263c4.863-29.559-1.342-53.293-17.474-66.829
			c-16.13-13.536-39.667-14.762-66.273-3.45c-24.87,10.576-49.891,31.107-70.454,57.815c-20.445,26.552-34.223,56.284-38.849,83.781
			c4.439,12.827,10.881,24.45,19.357,34.38c-2.448-8.658-2.734-19.341-0.728-31.532c3.97-24.13,16.291-50.582,34.694-74.483
			c18.402-23.901,40.499-42.149,62.219-51.385c15.89-6.757,29.858-7.946,40.341-3.598c2.7,1.12,5.171,2.609,7.382,4.464
			c10.791,9.055,14.722,26.269,11.069,48.47c-3.97,24.131-16.292,50.583-34.694,74.483c-18.402,23.901-40.499,42.149-62.219,51.385
			c-9.816,4.174-18.898,6.217-26.879,6.149c12.166,5.773,25.493,8.886,39.458,9.49C466.913,977.985,489.462,958.744,508.277,934.306
			z"/>
		<path d="M553.129,752.84c-22.212-18.642-53.885-21.673-89.182-8.538c-33.854,12.599-67.318,38.784-94.225,73.731
			c-7.94,10.312-15.035,21.043-21.22,32.002c-2.198,15.909-2.32,31.407-0.327,45.956c7.717-22.441,19.991-44.993,36.02-65.812
			c24.552-31.888,54.797-55.672,85.166-66.974c22.189-8.258,42.288-9.005,58.189-2.409c4.828,2.003,9.27,4.684,13.265,8.036
			c17.152,14.394,24.477,39.837,20.625,71.644c-4.044,33.393-19.792,69.343-44.343,101.23
			c-13.973,18.147-29.79,33.665-46.424,45.756c14.918-2.503,30.159-7.54,45.158-14.96c5.448-5.89,10.708-12.116,15.739-18.65
			c26.908-34.947,44.209-74.695,48.717-111.92C584.987,803.121,575.342,771.481,553.129,752.84z"/>
		<path d="M851.01,550.985c2.345-14.247,2.923-28.967,1.331-43.347c-1.688-15.26-5.819-30.137-12.871-43.66
			c-12.313-23.612-32.746-40.97-53.295-57.214c-44.729-35.358-50.277-36.317-74.857-60.615
			c-10.736-10.613-26.067-25.934-41.295-49.123c-15.109-23.007-24.337-44.957-30.092-62.416c-0.419-2.063-1.056-4.046-1.878-5.93
			c-0.815-2.679-1.545-5.229-2.199-7.631c-0.251,0.812-0.498,1.611-0.743,2.408c-4.004-5.685-9.717-8.855-15.928-11.437
			c-2.499-1.039-5.733-1.205-8.402-1.205c-3.41,0-6.174,2.764-6.174,6.174v509.902l0.028,0.996c0.355,6.394,0.586,13.894,0.64,21.95
			c-5.89-12.998-14.114-24.071-24.555-32.833c-27.851-23.374-67.694-27.124-112.188-10.566
			c-31.193,11.608-62.139,32.314-89.86,59.771c-11.527,19.38-19.96,39.542-25.251,59.49c3.096-4.462,6.314-8.878,9.667-13.232
			c31.921-41.458,71.292-72.4,110.858-87.125c29.189-10.863,55.689-11.815,76.739-3.083c6.444,2.673,12.38,6.257,17.722,10.739
			c22.79,19.125,32.545,52.744,27.468,94.664c-5.269,43.506-25.75,90.299-57.671,131.757c-0.055,0.071-0.111,0.14-0.165,0.211
			c14.84-9.903,29.133-22.174,42.287-36.642c27.165-22.953,46.348-67.854,53.124-101.241c6.27-30.891,8.765-63.813,7.079-95.343
			V487.688c47.184,25.764,93.894,53.228,135.354,87.593c26.706,22.136,42.531,53.292,41.621,88.244
			c-0.766,29.423-8.604,56.678-16.762,84.673c-0.354,1.216-0.705,2.471-0.569,3.732c0.539,4.967,6.776,4.557,9.417,1.744
			c4.423-4.713,7.083-13.441,10.493-19.063c3.926-6.473,6.866-13.175,9.657-20.212c5.191-13.091,9.49-26.508,11.78-40.424
			c2.345-14.247,2.923-28.967,1.331-43.347c-1.168-10.551-3.505-20.918-7.165-30.782c1.243-2.762,2.408-5.569,3.545-8.435
			C844.422,578.319,848.72,564.902,851.01,550.985z M826.994,540.536c-0.31,11.929-1.796,23.498-3.982,34.908
			c-12.319-17.952-29.275-32.212-46.329-45.693c-44.729-35.358-50.277-36.317-74.856-60.615
			c-10.736-10.613-26.067-25.933-41.296-49.123c-8.318-12.666-14.849-25.008-20.004-36.46v-24.014
			c50.391,27.272,100.607,56.085,144.845,92.753C813.03,475.216,827.939,504.239,826.994,540.536z"/>
	</g>
</g>
<g id="Text">
	<text transform="matrix(1 0 0 1 364.4319 330.4789)"><tspan x="0" y="0" style="font-family:'Rubik-Black'; font-size:123px; letter-spacing:25;">s</tspan><tspan x="86.223" y="0" style="font-family:'Rubik-Black'; font-size:123px; letter-spacing:9;">t</tspan><tspan x="2.46" y="147.6" style="font-family:'Rubik-Black'; font-size:123px; letter-spacing:9;">U</tspan><tspan x="91.265" y="147.6" style="font-family:'Rubik-Black'; font-size:123px; letter-spacing:-7;"> </tspan><tspan x="109.344" y="147.6" style="font-family:'Rubik-Black'; font-size:123px; letter-spacing:9;">d</tspan><tspan x="29.52" y="295.2" style="font-family:'Rubik-Black'; font-size:123px; letter-spacing:9;">i</tspan><tspan x="68.142" y="295.2" style="font-family:'Rubik-Black'; font-size:123px; letter-spacing:6;"> </tspan><tspan x="100.981" y="295.2" style="font-family:'Rubik-Black'; font-size:123px; letter-spacing:9;">o</tspan></text>
</g>
</svg>
