<?xml version="1.0" encoding="utf-8"?>
<!-- Generator: Adobe Illustrator 27.5.0, SVG Export Plug-In . SVG Version: 6.00 Build 0)  -->
<svg version="1.1" xmlns="http://www.w3.org/2000/svg" xmlns:xlink="http://www.w3.org/1999/xlink" x="0px" y="0px"
	 viewBox="0 0 1200 1200" style="enable-background:new 0 0 1200 1200;" xml:space="preserve">
<g id="Background">
	<rect style="fill:#F7F6F5;" width="1200" height="1200"/>
</g>
<g id="Graphic_Elements">
	<g>
		<g>
			
				<line style="fill:none;stroke:#222221;stroke-width:21;stroke-linecap:round;stroke-linejoin:round;stroke-miterlimit:10;" x1="241.275" y1="384.122" x2="241.275" y2="457.879"/>
			<path style="fill:none;stroke:#222221;stroke-width:21;stroke-linecap:round;stroke-linejoin:round;stroke-miterlimit:10;" d="
				M241.275,420.263h140.089c16.091,0,29.089,13.944,28.92,31.028l-1.703,172.491c-0.169,17.083,5.712,31.028,21.803,31.028h4.801
				c15.806,0,28.684-13.472,28.918-30.251l3.324-238.213c0.234-16.779,13.113-30.251,28.918-30.251l0,0
				c16.042,0,30.513,13.863,30.415,30.894l-0.688,119.049c-0.097,16.835,12.592,30.614,28.447,30.89v0.104
				c16.003,0.279,30.202-13.295,30.418-30.286l1.536-120.361c0.214-16.794,13.099-30.29,28.919-30.29h1.547
				c16.084,0,29.079,13.933,28.92,31.009L642.682,623.8c-0.159,17.076,12.835,31.009,28.92,31.009h0
				c15.797,0,28.671-13.457,28.918-30.226l0.513-173.357C701.279,434.457,714.153,421,729.95,421l0,0
				c16.442-0.113,29.831,13.183,29.833,29.625l0.005,38.79l32.604-0.174l23.569-0.125c8.462-0.045,16.715-2.633,23.687-7.429
				l85.945-107.161l-1.962,248.101l-92.825-97.849"/>
		</g>
		
			<line style="fill:none;stroke:#222221;stroke-width:21;stroke-linecap:round;stroke-linejoin:round;stroke-miterlimit:10;" x1="476.623" y1="285.148" x2="514.378" y2="285.148"/>
		
			<line style="fill:none;stroke:#222221;stroke-width:21;stroke-linecap:round;stroke-linejoin:round;stroke-miterlimit:10;" x1="598.965" y1="285.148" x2="636.72" y2="285.148"/>
		
			<line style="fill:none;stroke:#222221;stroke-width:21;stroke-linecap:round;stroke-linejoin:round;stroke-miterlimit:10;" x1="712.229" y1="356.094" x2="749.984" y2="356.094"/>
		
			<line style="fill:none;stroke:#222221;stroke-width:21;stroke-linecap:round;stroke-linejoin:round;stroke-miterlimit:10;" x1="495.5" y1="285.148" x2="495.5" y2="356.094"/>
		
			<line style="fill:none;stroke:#222221;stroke-width:21;stroke-linecap:round;stroke-linejoin:round;stroke-miterlimit:10;" x1="617.842" y1="285.148" x2="617.842" y2="356.094"/>
		
			<line style="fill:none;stroke:#222221;stroke-width:21;stroke-linecap:round;stroke-linejoin:round;stroke-miterlimit:10;" x1="731.106" y1="367.522" x2="731.106" y2="421"/>
	</g>
</g>
<g id="Text">
	
		<text transform="matrix(1 0 0 1 254.7875 816.1514)" style="fill:#1E1E1E; font-family:'Nunito-ExtraBold'; font-size:107px; letter-spacing:12;">MUSIC JAZZ</text>
	<text transform="matrix(1 0 0 1 372.4834 920.7559)" style="font-family:'Nunito-SemiBold'; font-size:85px; letter-spacing:34;">CENTER</text>
</g>
</svg>
