<?xml version="1.0" encoding="utf-8"?>
<!-- Generator: Adobe Illustrator 27.5.0, SVG Export Plug-In . SVG Version: 6.00 Build 0)  -->
<svg version="1.1" xmlns="http://www.w3.org/2000/svg" xmlns:xlink="http://www.w3.org/1999/xlink" x="0px" y="0px"
	 viewBox="0 0 500 500" style="enable-background:new 0 0 500 500;" xml:space="preserve">
<g id="BACKGROUND">
	<rect style="fill:#232323;" width="500" height="500"/>
</g>
<g id="OBJECTS">
	<g>
		<g>
			<linearGradient id="SVGID_1_" gradientUnits="userSpaceOnUse" x1="129.6263" y1="259.0865" x2="198.2173" y2="259.0865">
				<stop  offset="0" style="stop-color:#60919B"/>
				<stop  offset="0.237" style="stop-color:#007EF8"/>
				<stop  offset="0.2767" style="stop-color:#1F84DA"/>
				<stop  offset="0.3686" style="stop-color:#629198"/>
				<stop  offset="0.4559" style="stop-color:#9A9C62"/>
				<stop  offset="0.5361" style="stop-color:#C6A538"/>
				<stop  offset="0.6077" style="stop-color:#E5AB19"/>
				<stop  offset="0.6681" style="stop-color:#F8AF07"/>
				<stop  offset="0.7101" style="stop-color:#FFB000"/>
			</linearGradient>
			<path style="fill:url(#SVGID_1_);" d="M140.954,280.91c-0.016,0-0.031,0-0.047,0c-6.255-0.025-11.306-5.117-11.281-11.373
				c0.072-17.796,14.61-32.274,32.407-32.274h24.857c6.255,0,11.327,5.071,11.327,11.327c0,6.256-5.072,11.327-11.327,11.327
				h-24.857c-5.357,0-9.732,4.357-9.753,9.712C152.254,275.869,147.188,280.91,140.954,280.91z"/>
			<g>
				
					<linearGradient id="SVGID_00000073702839897384069410000015724431649295064216_" gradientUnits="userSpaceOnUse" x1="182.9464" y1="294.4422" x2="182.9464" y2="161.9241">
					<stop  offset="0" style="stop-color:#60919B"/>
					<stop  offset="0.279" style="stop-color:#007EF8"/>
					<stop  offset="0.3001" style="stop-color:#0D81EB"/>
					<stop  offset="0.4254" style="stop-color:#558FA5"/>
					<stop  offset="0.5434" style="stop-color:#929B6A"/>
					<stop  offset="0.6505" style="stop-color:#C1A43C"/>
					<stop  offset="0.7447" style="stop-color:#E3AA1B"/>
					<stop  offset="0.8223" style="stop-color:#F8AF07"/>
					<stop  offset="0.8738" style="stop-color:#FFB000"/>
				</linearGradient>
				<path style="fill:url(#SVGID_00000073702839897384069410000015724431649295064216_);" d="M236.264,164.897h-44.304
					c-8.013,0-14.508,6.495-14.508,14.508v90.265c0,5.387-4.367,9.754-9.754,9.754h-5.663c-5.387,0-9.753-4.367-9.753-9.753v-0.088
					c0-6.206-4.991-11.203-11.177-11.282c-6.433-0.083-11.58,5.491-11.472,11.923c0.296,17.615,14.718,31.854,32.403,31.854h5.663
					c17.898,0,32.408-14.51,32.408-32.408v-78.064c0-2.239,1.815-4.055,4.055-4.055h12.266c10.956,0,19.838-8.882,19.838-19.838
					V164.897z"/>
			</g>
		</g>
		<text transform="matrix(1 0 0 1 212.3815 234.4368)"><tspan x="0" y="0" style="fill:#E9FCFF; font-family:'SpartanMB-Black'; font-size:37.6264px; letter-spacing:3;">LOREM</tspan><tspan x="0" y="45.152" style="fill:#E9FCFF; font-family:'SpartanMB-Black'; font-size:37.6264px; letter-spacing:6;">I</tspan><tspan x="15.766" y="45.152" style="fill:#E9FCFF; font-family:'SpartanMB-Black'; font-size:37.6264px; letter-spacing:5;">P</tspan><tspan x="41.051" y="45.152" style="fill:#E9FCFF; font-family:'SpartanMB-Black'; font-size:37.6264px; letter-spacing:6;">SUM</tspan></text>
	</g>
	<g>
		
			<linearGradient id="SVGID_00000098207282759418912170000003797466496906256021_" gradientUnits="userSpaceOnUse" x1="114.0733" y1="326.0144" x2="369.8838" y2="326.0144">
			<stop  offset="0" style="stop-color:#60919B"/>
			<stop  offset="0.237" style="stop-color:#007EF8"/>
			<stop  offset="1" style="stop-color:#FFB000"/>
		</linearGradient>
		<path style="fill:url(#SVGID_00000098207282759418912170000003797466496906256021_);" d="M149.656,319.979
			c1.664,0,2.946,0.592,3.765,1.213l-0.424,0.705c-0.747-0.606-1.918-1.086-3.271-1.086c-3.159,0-5.246,2.355-5.246,5.203
			c0,2.849,2.087,5.204,5.246,5.204c1.354,0,2.524-0.479,3.271-1.086l0.424,0.705c-0.819,0.62-2.101,1.213-3.765,1.213
			c-3.498,0-6.093-2.651-6.093-6.036C143.563,322.63,146.158,319.979,149.656,319.979z"/>
		
			<linearGradient id="SVGID_00000008862523828829195600000011085977487698605246_" gradientUnits="userSpaceOnUse" x1="114.0734" y1="326.0144" x2="369.8833" y2="326.0144">
			<stop  offset="0" style="stop-color:#60919B"/>
			<stop  offset="0.237" style="stop-color:#007EF8"/>
			<stop  offset="1" style="stop-color:#FFB000"/>
		</linearGradient>
		<path style="fill:url(#SVGID_00000008862523828829195600000011085977487698605246_);" d="M166.517,319.979
			c3.201,0,5.867,2.623,5.867,6.036c0,3.413-2.665,6.036-5.867,6.036c-3.201,0-5.866-2.623-5.866-6.036
			C160.65,322.602,163.315,319.979,166.517,319.979z M166.517,331.232c2.778,0,4.964-2.326,4.964-5.218
			c0-2.891-2.186-5.218-4.964-5.218c-2.778,0-4.964,2.327-4.964,5.218C161.553,328.906,163.739,331.232,166.517,331.232z"/>
		
			<linearGradient id="SVGID_00000076579465991101455130000009421699431066124174_" gradientUnits="userSpaceOnUse" x1="114.0736" y1="326.0075" x2="369.8826" y2="326.0075">
			<stop  offset="0" style="stop-color:#60919B"/>
			<stop  offset="0.237" style="stop-color:#007EF8"/>
			<stop  offset="1" style="stop-color:#FFB000"/>
		</linearGradient>
		<path style="fill:url(#SVGID_00000076579465991101455130000009421699431066124174_);" d="M182.095,320.19l3.54,9.448l3.539-9.448
			h0.903l1.58,11.634h-0.846l-1.396-10.027l-3.441,9.251h-0.676l-3.441-9.251l-1.396,10.027h-0.845l1.579-11.634H182.095z"/>
		
			<linearGradient id="SVGID_00000164507471033385074660000013605504418687961475_" gradientUnits="userSpaceOnUse" x1="114.0736" y1="326.0075" x2="369.8823" y2="326.0075">
			<stop  offset="0" style="stop-color:#60919B"/>
			<stop  offset="0.237" style="stop-color:#007EF8"/>
			<stop  offset="1" style="stop-color:#FFB000"/>
		</linearGradient>
		<path style="fill:url(#SVGID_00000164507471033385074660000013605504418687961475_);" d="M202.314,320.19
			c2.271,0,3.666,1.241,3.666,3.243c0,1.989-1.395,3.371-3.666,3.371h-2.003v5.02h-0.845V320.19H202.314z M200.311,326.085h1.834
			c1.834,0,2.99-1.058,2.99-2.637c0-1.594-1.156-2.567-2.99-2.567h-1.834V326.085z"/>
		
			<linearGradient id="SVGID_00000023274925193236982470000013803991566616877472_" gradientUnits="userSpaceOnUse" x1="114.0737" y1="326.0075" x2="369.8829" y2="326.0075">
			<stop  offset="0" style="stop-color:#60919B"/>
			<stop  offset="0.237" style="stop-color:#007EF8"/>
			<stop  offset="1" style="stop-color:#FFB000"/>
		</linearGradient>
		<path style="fill:url(#SVGID_00000023274925193236982470000013803991566616877472_);" d="M216.903,320.19l4.569,11.634h-0.916
			l-1.495-3.906h-5.105l-1.494,3.906h-0.917l4.569-11.634H216.903z M218.779,327.171l-2.271-5.88l-2.27,5.88H218.779z"/>
		
			<linearGradient id="SVGID_00000076571833174688140120000014449836817183761046_" gradientUnits="userSpaceOnUse" x1="114.0734" y1="326.0075" x2="369.8829" y2="326.0075">
			<stop  offset="0" style="stop-color:#60919B"/>
			<stop  offset="0.237" style="stop-color:#007EF8"/>
			<stop  offset="1" style="stop-color:#FFB000"/>
		</linearGradient>
		<path style="fill:url(#SVGID_00000076571833174688140120000014449836817183761046_);" d="M229.364,320.19l6.488,10.182V320.19
			h0.846v11.634h-0.846l-6.488-10.168v10.168h-0.845V320.19H229.364z"/>
		
			<linearGradient id="SVGID_00000136405649518694022320000003557175949075761838_" gradientUnits="userSpaceOnUse" x1="114.072" y1="326.0075" x2="369.8846" y2="326.0075">
			<stop  offset="0" style="stop-color:#60919B"/>
			<stop  offset="0.237" style="stop-color:#007EF8"/>
			<stop  offset="1" style="stop-color:#FFB000"/>
		</linearGradient>
		<path style="fill:url(#SVGID_00000136405649518694022320000003557175949075761838_);" d="M252.514,320.19l-3.963,6.614v5.02
			h-0.846v-5.02l-3.963-6.614h1.03l3.356,5.697l3.356-5.697H252.514z"/>
		
			<linearGradient id="SVGID_00000081642705673918886110000006416892722875017659_" gradientUnits="userSpaceOnUse" x1="114.0723" y1="326.0144" x2="369.8844" y2="326.0144">
			<stop  offset="0" style="stop-color:#60919B"/>
			<stop  offset="0.237" style="stop-color:#007EF8"/>
			<stop  offset="1" style="stop-color:#FFB000"/>
		</linearGradient>
		<path style="fill:url(#SVGID_00000081642705673918886110000006416892722875017659_);" d="M271.762,319.979
			c1.805,0,2.779,0.987,3.089,1.862l-0.649,0.282c-0.226-0.733-1.086-1.368-2.397-1.368c-1.565,0-2.383,1.185-2.383,2.299
			c0,1.213,1.058,1.805,2.383,2.228c2.186,0.719,3.385,1.706,3.385,3.526c0,2.073-1.439,3.243-3.512,3.243
			c-2.285,0-3.3-1.41-3.653-2.454l0.719-0.31c0.24,0.804,1.199,1.974,2.891,1.974c1.495,0,2.679-0.775,2.679-2.425
			c0-1.382-0.973-2.13-3.06-2.821c-1.848-0.621-2.636-1.621-2.636-2.947C268.618,321.248,270.042,319.979,271.762,319.979z"/>
		
			<linearGradient id="SVGID_00000039100104036019324880000009617142596215347610_" gradientUnits="userSpaceOnUse" x1="114.073" y1="326.0075" x2="369.883" y2="326.0075">
			<stop  offset="0" style="stop-color:#60919B"/>
			<stop  offset="0.237" style="stop-color:#007EF8"/>
			<stop  offset="1" style="stop-color:#FFB000"/>
		</linearGradient>
		<path style="fill:url(#SVGID_00000039100104036019324880000009617142596215347610_);" d="M284.137,320.19v10.887h4.993v0.747
			h-5.838V320.19H284.137z"/>
		
			<linearGradient id="SVGID_00000050650817602843718370000017309638546616808878_" gradientUnits="userSpaceOnUse" x1="114.0731" y1="326.0144" x2="369.883" y2="326.0144">
			<stop  offset="0" style="stop-color:#60919B"/>
			<stop  offset="0.237" style="stop-color:#007EF8"/>
			<stop  offset="1" style="stop-color:#FFB000"/>
		</linearGradient>
		<path style="fill:url(#SVGID_00000050650817602843718370000017309638546616808878_);" d="M302.012,319.979
			c3.201,0,5.867,2.623,5.867,6.036c0,3.413-2.665,6.036-5.867,6.036c-3.201,0-5.866-2.623-5.866-6.036
			C296.146,322.602,298.811,319.979,302.012,319.979z M302.012,331.232c2.778,0,4.964-2.326,4.964-5.218
			c0-2.891-2.186-5.218-4.964-5.218c-2.778,0-4.964,2.327-4.964,5.218C297.048,328.906,299.235,331.232,302.012,331.232z"/>
		
			<linearGradient id="SVGID_00000121979801692426532480000010736547925109407151_" gradientUnits="userSpaceOnUse" x1="114.0728" y1="326.0144" x2="369.8828" y2="326.0144">
			<stop  offset="0" style="stop-color:#60919B"/>
			<stop  offset="0.237" style="stop-color:#007EF8"/>
			<stop  offset="1" style="stop-color:#FFB000"/>
		</linearGradient>
		<path style="fill:url(#SVGID_00000121979801692426532480000010736547925109407151_);" d="M321.005,319.979
			c2.059,0,3.484,0.762,4.499,1.989l-0.564,0.606c-0.889-1.128-2.186-1.833-3.906-1.833c-2.75,0-4.88,2.355-4.88,5.288
			c0,2.891,2.229,5.246,4.88,5.246c2.298,0,4.484-1.551,4.484-3.977v-0.437h-4.513v-0.705h5.388v0.888
			c0,3.103-2.483,5.006-5.388,5.006c-3.13,0-5.669-2.693-5.669-6.021C315.336,322.672,317.733,319.979,321.005,319.979z"/>
		
			<linearGradient id="SVGID_00000087398100621383298550000000526977433035693756_" gradientUnits="userSpaceOnUse" x1="114.0738" y1="326.0075" x2="369.883" y2="326.0075">
			<stop  offset="0" style="stop-color:#60919B"/>
			<stop  offset="0.237" style="stop-color:#007EF8"/>
			<stop  offset="1" style="stop-color:#FFB000"/>
		</linearGradient>
		<path style="fill:url(#SVGID_00000087398100621383298550000000526977433035693756_);" d="M338.148,320.19l4.569,11.634h-0.916
			l-1.495-3.906h-5.105l-1.494,3.906h-0.917l4.569-11.634H338.148z M340.025,327.171l-2.271-5.88l-2.27,5.88H340.025z"/>
		
			<linearGradient id="SVGID_00000176000951509543432470000000110459495260194714_" gradientUnits="userSpaceOnUse" x1="114.0736" y1="326.0075" x2="369.8831" y2="326.0075">
			<stop  offset="0" style="stop-color:#60919B"/>
			<stop  offset="0.237" style="stop-color:#007EF8"/>
			<stop  offset="1" style="stop-color:#FFB000"/>
		</linearGradient>
		<path style="fill:url(#SVGID_00000176000951509543432470000000110459495260194714_);" d="M350.609,320.19l6.488,10.182V320.19
			h0.846v11.634h-0.846l-6.488-10.168v10.168h-0.845V320.19H350.609z"/>
	</g>
	<g>
		
			<linearGradient id="SVGID_00000158749810873421229610000006462031469203173782_" gradientUnits="userSpaceOnUse" x1="267.9878" y1="131.088" x2="267.9878" y2="190.5579">
			<stop  offset="0" style="stop-color:#60919B"/>
			<stop  offset="0.237" style="stop-color:#007EF8"/>
			<stop  offset="0.2856" style="stop-color:#1281E7"/>
			<stop  offset="0.6436" style="stop-color:#909A6C"/>
			<stop  offset="0.8885" style="stop-color:#E0AA1E"/>
			<stop  offset="1" style="stop-color:#FFB000"/>
		</linearGradient>
		<path style="fill:url(#SVGID_00000158749810873421229610000006462031469203173782_);" d="M267.988,153.797L267.988,153.797
			c-5.319,0-9.63,4.312-9.63,9.63v13.977c0,5.319,4.312,9.63,9.63,9.63l0,0c5.319,0,9.63-4.312,9.63-9.63v-13.977
			C277.618,158.109,273.306,153.797,267.988,153.797z"/>
		
			<linearGradient id="SVGID_00000101081780092194906030000000744441143246373531_" gradientUnits="userSpaceOnUse" x1="302.0496" y1="127.0606" x2="302.0496" y2="178.9567">
			<stop  offset="0" style="stop-color:#60919B"/>
			<stop  offset="0.237" style="stop-color:#007EF8"/>
			<stop  offset="1" style="stop-color:#FFB000"/>
		</linearGradient>
		<path style="fill:url(#SVGID_00000101081780092194906030000000744441143246373531_);" d="M302.05,131.822L302.05,131.822
			c-5.319,0-9.63,4.312-9.63,9.63v35.952c0,5.319,4.312,9.63,9.63,9.63h0c5.319,0,9.63-4.312,9.63-9.63v-35.952
			C311.68,136.133,307.368,131.822,302.05,131.822z"/>
		
			<linearGradient id="SVGID_00000139273320129163613320000012333714711829662652_" gradientUnits="userSpaceOnUse" x1="336.1114" y1="127.0606" x2="336.1114" y2="178.9564">
			<stop  offset="0" style="stop-color:#60919B"/>
			<stop  offset="0.237" style="stop-color:#007EF8"/>
			<stop  offset="1" style="stop-color:#FFB000"/>
		</linearGradient>
		<path style="fill:url(#SVGID_00000139273320129163613320000012333714711829662652_);" d="M336.111,142.81L336.111,142.81
			c-5.319,0-9.63,4.312-9.63,9.63v24.965c0,5.319,4.312,9.63,9.63,9.63l0,0c5.319,0,9.63-4.312,9.63-9.63V152.44
			C345.742,147.121,341.43,142.81,336.111,142.81z"/>
	</g>
</g>
<g id="DESIGN">
	<g>
		<g>
			<path style="fill:#E9FCFF;" d="M171.85,459.65v-0.18c-0.245,0.279-0.485,0.507-0.723,0.682c-0.237,0.176-0.495,0.309-0.772,0.4
				c-0.277,0.092-0.58,0.137-0.908,0.137c-0.435,0-0.838-0.092-1.209-0.276c-0.37-0.184-0.691-0.448-0.961-0.789
				c-0.271-0.342-0.476-0.743-0.616-1.205c-0.14-0.462-0.21-0.961-0.21-1.497c0-1.136,0.277-2.023,0.832-2.657
				c0.555-0.634,1.285-0.951,2.19-0.951c0.523,0,0.965,0.09,1.324,0.269c0.36,0.18,0.71,0.457,1.052,0.829v-2.682
				c0-0.373,0.074-0.654,0.223-0.845c0.148-0.191,0.36-0.286,0.635-0.286c0.275,0,0.487,0.088,0.635,0.263
				c0.149,0.176,0.223,0.433,0.223,0.775v8.015c0,0.346-0.079,0.606-0.24,0.779c-0.16,0.172-0.366,0.259-0.619,0.259
				c-0.248,0-0.454-0.089-0.616-0.269C171.931,460.238,171.85,459.983,171.85,459.65z M168.275,456.981
				c0,0.493,0.077,0.912,0.23,1.258c0.153,0.346,0.363,0.607,0.629,0.782c0.266,0.176,0.557,0.264,0.872,0.264
				c0.32,0,0.611-0.083,0.876-0.25c0.264-0.166,0.475-0.422,0.632-0.765c0.158-0.344,0.236-0.775,0.236-1.289
				c0-0.484-0.078-0.9-0.236-1.249c-0.157-0.348-0.37-0.614-0.639-0.799c-0.269-0.184-0.563-0.275-0.882-0.275
				c-0.333,0-0.63,0.095-0.892,0.283c-0.262,0.188-0.465,0.458-0.609,0.812C168.347,456.105,168.275,456.514,168.275,456.981z"/>
			<path style="fill:#E9FCFF;" d="M179.863,457.44h-3.554c0.005,0.412,0.087,0.776,0.25,1.091c0.161,0.315,0.377,0.553,0.645,0.712
				c0.269,0.16,0.565,0.239,0.889,0.239c0.217,0,0.416-0.025,0.596-0.075c0.18-0.052,0.354-0.131,0.523-0.24
				c0.169-0.108,0.324-0.225,0.466-0.35c0.142-0.125,0.326-0.294,0.552-0.507c0.093-0.079,0.227-0.12,0.4-0.12
				c0.186,0,0.337,0.052,0.452,0.154c0.115,0.103,0.174,0.246,0.174,0.432c0,0.164-0.065,0.355-0.193,0.576
				c-0.13,0.22-0.324,0.431-0.583,0.633c-0.26,0.202-0.585,0.369-0.979,0.502c-0.392,0.133-0.844,0.2-1.355,0.2
				c-1.166,0-2.074-0.333-2.722-0.998c-0.648-0.665-0.971-1.569-0.971-2.709c0-0.537,0.079-1.036,0.239-1.494
				c0.16-0.46,0.393-0.853,0.699-1.182c0.306-0.328,0.683-0.58,1.132-0.756c0.448-0.175,0.945-0.262,1.491-0.262
				c0.71,0,1.319,0.148,1.826,0.449c0.509,0.299,0.89,0.687,1.142,1.161c0.252,0.475,0.38,0.96,0.38,1.451
				c0,0.458-0.131,0.754-0.393,0.89C180.708,457.372,180.339,457.44,179.863,457.44z M176.309,456.408h3.295
				c-0.044-0.621-0.213-1.087-0.503-1.395c-0.291-0.309-0.673-0.463-1.148-0.463c-0.453,0-0.825,0.156-1.115,0.469
				C176.548,455.332,176.372,455.796,176.309,456.408z"/>
			<path style="fill:#E9FCFF;" d="M188.144,458.311c0,0.502-0.122,0.932-0.366,1.289c-0.243,0.357-0.604,0.628-1.082,0.812
				c-0.477,0.184-1.057,0.276-1.741,0.276c-0.652,0-1.211-0.1-1.678-0.3c-0.466-0.199-0.81-0.45-1.031-0.748
				c-0.222-0.3-0.333-0.6-0.333-0.903c0-0.2,0.071-0.37,0.213-0.512c0.142-0.142,0.322-0.213,0.539-0.213
				c0.19,0,0.336,0.047,0.439,0.14c0.102,0.093,0.2,0.224,0.293,0.392c0.187,0.325,0.41,0.565,0.67,0.726
				c0.26,0.159,0.613,0.24,1.062,0.24c0.364,0,0.662-0.081,0.895-0.243c0.233-0.163,0.349-0.348,0.349-0.557
				c0-0.32-0.12-0.552-0.363-0.698c-0.242-0.147-0.64-0.287-1.195-0.42c-0.626-0.155-1.135-0.318-1.528-0.489
				c-0.393-0.17-0.707-0.396-0.942-0.675c-0.235-0.28-0.353-0.624-0.353-1.032c0-0.363,0.108-0.708,0.326-1.032
				c0.218-0.323,0.538-0.582,0.963-0.775c0.423-0.194,0.934-0.29,1.534-0.29c0.47,0,0.893,0.048,1.268,0.147
				c0.375,0.097,0.689,0.229,0.939,0.393c0.251,0.163,0.442,0.346,0.572,0.545c0.131,0.2,0.196,0.395,0.196,0.587
				c0,0.208-0.07,0.379-0.209,0.513c-0.14,0.132-0.338,0.2-0.596,0.2c-0.187,0-0.345-0.053-0.476-0.161
				c-0.131-0.106-0.281-0.266-0.449-0.478c-0.138-0.177-0.299-0.32-0.485-0.427c-0.187-0.107-0.439-0.159-0.759-0.159
				c-0.329,0-0.601,0.069-0.819,0.21c-0.217,0.139-0.326,0.313-0.326,0.522c0,0.192,0.08,0.348,0.239,0.469
				c0.16,0.122,0.375,0.224,0.646,0.303c0.271,0.079,0.643,0.177,1.118,0.292c0.563,0.138,1.023,0.303,1.381,0.493
				c0.357,0.19,0.628,0.416,0.813,0.676C188.052,457.683,188.144,457.978,188.144,458.311z"/>
			<path style="fill:#E9FCFF;" d="M190,452.454c-0.253,0-0.469-0.078-0.649-0.233c-0.18-0.155-0.27-0.374-0.27-0.659
				c0-0.258,0.092-0.469,0.276-0.636c0.184-0.167,0.399-0.25,0.642-0.25c0.235,0,0.444,0.075,0.625,0.227
				c0.182,0.151,0.274,0.37,0.274,0.659c0,0.28-0.089,0.498-0.267,0.656C190.455,452.375,190.244,452.454,190,452.454z
				 M190.899,454.331v5.252c0,0.364-0.087,0.64-0.26,0.826c-0.173,0.186-0.393,0.279-0.659,0.279c-0.267,0-0.483-0.095-0.649-0.286
				c-0.167-0.191-0.249-0.464-0.249-0.819v-5.199c0-0.359,0.083-0.63,0.249-0.812c0.166-0.182,0.383-0.273,0.649-0.273
				c0.267,0,0.486,0.091,0.659,0.273C190.813,453.754,190.899,454.007,190.899,454.331z"/>
			<path style="fill:#E9FCFF;" d="M198.86,454.631v5.278c0,0.604-0.065,1.123-0.194,1.558c-0.128,0.434-0.334,0.794-0.619,1.078
				c-0.284,0.283-0.656,0.495-1.115,0.632c-0.459,0.138-1.031,0.207-1.714,0.207c-0.626,0-1.185-0.088-1.678-0.263
				c-0.492-0.176-0.871-0.402-1.138-0.679c-0.266-0.277-0.4-0.563-0.4-0.856c0-0.222,0.076-0.403,0.227-0.542
				c0.151-0.14,0.333-0.21,0.546-0.21c0.266,0,0.499,0.118,0.699,0.352c0.097,0.12,0.198,0.242,0.303,0.363
				c0.104,0.122,0.22,0.227,0.346,0.313c0.127,0.086,0.279,0.15,0.456,0.192c0.178,0.041,0.382,0.063,0.613,0.063
				c0.47,0,0.836-0.065,1.095-0.196c0.26-0.131,0.442-0.314,0.546-0.55c0.104-0.234,0.165-0.486,0.183-0.755
				c0.018-0.269,0.031-0.7,0.04-1.296c-0.28,0.391-0.602,0.689-0.969,0.893c-0.366,0.204-0.802,0.306-1.308,0.306
				c-0.608,0-1.139-0.155-1.595-0.466c-0.455-0.311-0.804-0.745-1.048-1.305c-0.244-0.56-0.366-1.204-0.366-1.937
				c0-0.546,0.074-1.039,0.222-1.478c0.149-0.44,0.361-0.81,0.636-1.112c0.275-0.302,0.592-0.529,0.952-0.682
				c0.359-0.153,0.754-0.229,1.185-0.229c0.514,0,0.961,0.099,1.338,0.296c0.377,0.199,0.728,0.508,1.052,0.93v-0.247
				c0-0.315,0.077-0.559,0.233-0.732c0.156-0.173,0.356-0.259,0.6-0.259c0.35,0,0.583,0.115,0.699,0.343
				C198.802,453.871,198.86,454.2,198.86,454.631z M193.594,456.934c0,0.736,0.16,1.294,0.482,1.671
				c0.322,0.378,0.738,0.566,1.249,0.566c0.301,0,0.587-0.081,0.855-0.243c0.269-0.162,0.487-0.406,0.656-0.732
				c0.168-0.327,0.253-0.722,0.253-1.188c0-0.74-0.163-1.318-0.489-1.73c-0.326-0.413-0.756-0.619-1.288-0.619
				c-0.52,0-0.935,0.198-1.248,0.593C193.751,455.645,193.594,456.207,193.594,456.934z"/>
			<path style="fill:#E9FCFF;" d="M201.748,454.305v0.22c0.319-0.422,0.669-0.731,1.048-0.929c0.38-0.197,0.815-0.296,1.308-0.296
				c0.479,0,0.908,0.105,1.285,0.313c0.377,0.209,0.66,0.504,0.845,0.884c0.121,0.223,0.198,0.463,0.233,0.719
				c0.036,0.258,0.054,0.586,0.054,0.986v3.381c0,0.364-0.083,0.64-0.25,0.826c-0.167,0.186-0.383,0.279-0.649,0.279
				c-0.271,0-0.49-0.095-0.659-0.286c-0.169-0.191-0.253-0.464-0.253-0.819v-3.029c0-0.599-0.084-1.057-0.25-1.374
				c-0.167-0.317-0.498-0.476-0.995-0.476c-0.323,0-0.619,0.096-0.885,0.29c-0.266,0.194-0.462,0.459-0.586,0.796
				c-0.089,0.271-0.133,0.776-0.133,1.517v2.276c0,0.368-0.086,0.645-0.256,0.829c-0.171,0.184-0.391,0.276-0.662,0.276
				c-0.262,0-0.477-0.095-0.646-0.286c-0.168-0.191-0.253-0.464-0.253-0.819v-5.252c0-0.346,0.075-0.605,0.226-0.776
				c0.151-0.171,0.357-0.256,0.619-0.256c0.16,0,0.305,0.038,0.434,0.114c0.128,0.076,0.232,0.189,0.309,0.339
				C201.709,453.903,201.748,454.087,201.748,454.305z"/>
			<path style="fill:#E9FCFF;" d="M212.803,457.44h-3.554c0.005,0.412,0.087,0.776,0.25,1.091c0.162,0.315,0.377,0.553,0.646,0.712
				c0.268,0.16,0.564,0.239,0.888,0.239c0.218,0,0.416-0.025,0.596-0.075c0.179-0.052,0.353-0.131,0.523-0.24
				c0.168-0.108,0.323-0.225,0.466-0.35c0.141-0.125,0.326-0.294,0.552-0.507c0.093-0.079,0.226-0.12,0.399-0.12
				c0.187,0,0.337,0.052,0.453,0.154c0.115,0.103,0.173,0.246,0.173,0.432c0,0.164-0.064,0.355-0.193,0.576
				c-0.129,0.22-0.323,0.431-0.583,0.633c-0.26,0.202-0.585,0.369-0.978,0.502c-0.393,0.133-0.845,0.2-1.355,0.2
				c-1.167,0-2.075-0.333-2.723-0.998c-0.647-0.665-0.971-1.569-0.971-2.709c0-0.537,0.08-1.036,0.239-1.494
				c0.16-0.46,0.393-0.853,0.699-1.182c0.306-0.328,0.683-0.58,1.131-0.756c0.448-0.175,0.945-0.262,1.491-0.262
				c0.71,0,1.318,0.148,1.826,0.449c0.509,0.299,0.889,0.687,1.142,1.161c0.253,0.475,0.379,0.96,0.379,1.451
				c0,0.458-0.131,0.754-0.393,0.89C213.647,457.372,213.279,457.44,212.803,457.44z M209.249,456.408h3.295
				c-0.044-0.621-0.212-1.087-0.502-1.395c-0.291-0.309-0.673-0.463-1.148-0.463c-0.453,0-0.825,0.156-1.116,0.469
				C209.487,455.332,209.312,455.796,209.249,456.408z"/>
			<path style="fill:#E9FCFF;" d="M220.211,459.65v-0.18c-0.244,0.279-0.484,0.507-0.722,0.682c-0.238,0.176-0.495,0.309-0.772,0.4
				c-0.277,0.092-0.58,0.137-0.908,0.137c-0.436,0-0.838-0.092-1.208-0.276c-0.371-0.184-0.691-0.448-0.962-0.789
				c-0.271-0.342-0.476-0.743-0.616-1.205c-0.14-0.462-0.21-0.961-0.21-1.497c0-1.136,0.277-2.023,0.832-2.657
				c0.555-0.634,1.285-0.951,2.19-0.951c0.523,0,0.965,0.09,1.325,0.269c0.359,0.18,0.71,0.457,1.051,0.829v-2.682
				c0-0.373,0.075-0.654,0.223-0.845c0.148-0.191,0.361-0.286,0.636-0.286c0.275,0,0.487,0.088,0.635,0.263
				c0.148,0.176,0.223,0.433,0.223,0.775v8.015c0,0.346-0.08,0.606-0.24,0.779c-0.16,0.172-0.366,0.259-0.619,0.259
				c-0.249,0-0.454-0.089-0.616-0.269C220.292,460.238,220.211,459.983,220.211,459.65z M216.637,456.981
				c0,0.493,0.076,0.912,0.229,1.258c0.153,0.346,0.363,0.607,0.63,0.782c0.266,0.176,0.557,0.264,0.871,0.264
				c0.32,0,0.612-0.083,0.876-0.25c0.264-0.166,0.475-0.422,0.632-0.765c0.158-0.344,0.236-0.775,0.236-1.289
				c0-0.484-0.079-0.9-0.236-1.249c-0.157-0.348-0.37-0.614-0.639-0.799c-0.269-0.184-0.563-0.275-0.882-0.275
				c-0.332,0-0.63,0.095-0.892,0.283c-0.261,0.188-0.465,0.458-0.609,0.812C216.709,456.105,216.637,456.514,216.637,456.981z"/>
			<path style="fill:#E9FCFF;" d="M227.639,451.635v2.775c0.341-0.355,0.69-0.627,1.045-0.815c0.355-0.188,0.794-0.283,1.318-0.283
				c0.604,0,1.132,0.143,1.588,0.428c0.454,0.288,0.807,0.702,1.058,1.246c0.25,0.543,0.376,1.188,0.376,1.934
				c0,0.55-0.07,1.054-0.21,1.514c-0.14,0.459-0.343,0.858-0.609,1.194c-0.267,0.337-0.589,0.599-0.968,0.783
				c-0.38,0.184-0.798,0.276-1.255,0.276c-0.28,0-0.543-0.033-0.789-0.1c-0.247-0.066-0.456-0.153-0.629-0.263
				c-0.173-0.108-0.32-0.22-0.442-0.336c-0.122-0.115-0.283-0.289-0.483-0.52v0.18c0,0.341-0.082,0.6-0.247,0.776
				c-0.164,0.175-0.372,0.262-0.625,0.262c-0.257,0-0.463-0.087-0.616-0.262c-0.153-0.176-0.23-0.435-0.23-0.776v-7.935
				c0-0.368,0.074-0.647,0.223-0.835c0.149-0.188,0.357-0.283,0.623-0.283c0.28,0,0.495,0.09,0.646,0.269
				C227.563,451.047,227.639,451.302,227.639,451.635z M227.725,457.034c0,0.723,0.165,1.278,0.496,1.667
				c0.33,0.389,0.764,0.584,1.301,0.584c0.457,0,0.851-0.198,1.181-0.596c0.331-0.398,0.496-0.966,0.496-1.708
				c0-0.479-0.068-0.892-0.206-1.238c-0.138-0.346-0.333-0.614-0.585-0.802c-0.253-0.188-0.549-0.283-0.886-0.283
				c-0.346,0-0.655,0.095-0.925,0.283c-0.271,0.188-0.484,0.461-0.639,0.819C227.803,456.116,227.725,456.541,227.725,457.034z"/>
			<path style="fill:#E9FCFF;" d="M235.38,460.915l0.166-0.407l-2.237-5.632c-0.137-0.323-0.207-0.559-0.207-0.705
				c0-0.156,0.04-0.299,0.12-0.432c0.08-0.133,0.189-0.24,0.329-0.32c0.14-0.081,0.285-0.12,0.436-0.12
				c0.261,0,0.459,0.083,0.593,0.25c0.133,0.166,0.251,0.405,0.352,0.715l1.538,4.473l1.458-4.16
				c0.115-0.336,0.219-0.601,0.313-0.792c0.093-0.191,0.191-0.32,0.296-0.385c0.104-0.067,0.252-0.101,0.443-0.101
				c0.138,0,0.27,0.036,0.396,0.11c0.126,0.073,0.224,0.172,0.293,0.296c0.069,0.124,0.104,0.255,0.104,0.392
				c-0.018,0.084-0.046,0.204-0.087,0.36c-0.04,0.155-0.089,0.313-0.146,0.472l-2.37,6.204c-0.205,0.546-0.404,0.973-0.6,1.284
				c-0.195,0.311-0.453,0.55-0.775,0.716c-0.322,0.167-0.756,0.25-1.301,0.25c-0.532,0-0.932-0.057-1.197-0.173
				c-0.267-0.116-0.4-0.327-0.4-0.633c0-0.208,0.063-0.37,0.19-0.483c0.126-0.113,0.314-0.17,0.562-0.17
				c0.098,0,0.194,0.014,0.287,0.041c0.115,0.026,0.215,0.04,0.299,0.04c0.208,0,0.373-0.031,0.493-0.094
				c0.119-0.062,0.227-0.169,0.323-0.323C235.146,461.438,235.256,461.212,235.38,460.915z"/>
		</g>
		<g>
			<path style="fill:#E9FCFF;" d="M261.706,453.457h0.433v-0.546c0-0.571,0.07-1.021,0.215-1.358
				c0.143-0.335,0.389-0.579,0.734-0.732c0.344-0.152,0.815-0.229,1.413-0.229c1.065,0,1.593,0.257,1.593,0.781
				c0,0.167-0.055,0.311-0.168,0.431c-0.108,0.118-0.24,0.179-0.391,0.179c-0.07,0-0.195-0.013-0.369-0.042
				c-0.166-0.023-0.317-0.039-0.437-0.039c-0.328,0-0.537,0.099-0.634,0.291c-0.089,0.193-0.137,0.469-0.137,0.83v0.433h0.443
				c0.695,0,1.038,0.208,1.038,0.628c0,0.294-0.089,0.484-0.275,0.564c-0.183,0.08-0.437,0.12-0.763,0.12h-0.443v4.816
				c0,0.358-0.084,0.631-0.259,0.819c-0.169,0.191-0.388,0.285-0.661,0.285c-0.257,0-0.47-0.094-0.643-0.285
				c-0.171-0.188-0.255-0.461-0.255-0.819v-4.816h-0.5c-0.272,0-0.478-0.059-0.626-0.183c-0.147-0.12-0.22-0.28-0.22-0.475
				C260.793,453.672,261.097,453.457,261.706,453.457"/>
			<path style="fill:#E9FCFF;" d="M267.656,458.064v1.519c0,0.367-0.093,0.644-0.262,0.827c-0.173,0.186-0.392,0.277-0.657,0.277
				c-0.268,0-0.482-0.092-0.65-0.281c-0.166-0.185-0.253-0.46-0.253-0.823v-5.062c0-0.817,0.294-1.226,0.884-1.226
				c0.304,0,0.521,0.094,0.654,0.286c0.133,0.192,0.207,0.472,0.223,0.847c0.216-0.374,0.437-0.655,0.664-0.847
				c0.233-0.192,0.535-0.286,0.918-0.286c0.385,0,0.751,0.094,1.111,0.286c0.361,0.192,0.541,0.446,0.541,0.76
				c0,0.22-0.077,0.406-0.228,0.548c-0.154,0.146-0.318,0.218-0.495,0.218c-0.07,0-0.232-0.044-0.485-0.126
				c-0.256-0.079-0.482-0.121-0.675-0.121c-0.266,0-0.485,0.072-0.653,0.209c-0.17,0.144-0.302,0.348-0.395,0.621
				c-0.09,0.277-0.153,0.606-0.191,0.984C267.672,457.055,267.656,457.518,267.656,458.064"/>
			<path style="fill:#E9FCFF;" d="M276.011,457.439h-3.556c0.006,0.412,0.087,0.778,0.249,1.092
				c0.165,0.313,0.378,0.551,0.648,0.712c0.27,0.159,0.563,0.238,0.889,0.238c0.218,0,0.415-0.023,0.595-0.078
				c0.178-0.049,0.354-0.13,0.522-0.239c0.17-0.107,0.323-0.223,0.465-0.351c0.142-0.122,0.327-0.291,0.554-0.504
				c0.094-0.079,0.227-0.122,0.398-0.122c0.188,0,0.338,0.052,0.455,0.155c0.116,0.103,0.171,0.246,0.171,0.433
				c0,0.165-0.062,0.356-0.188,0.574c-0.131,0.223-0.324,0.432-0.586,0.635c-0.262,0.2-0.588,0.369-0.979,0.5
				c-0.392,0.133-0.845,0.201-1.354,0.201c-1.171,0-2.077-0.331-2.724-0.996c-0.648-0.668-0.975-1.572-0.975-2.711
				c0-0.537,0.082-1.036,0.244-1.496c0.157-0.461,0.391-0.852,0.7-1.183c0.305-0.33,0.68-0.581,1.13-0.756
				c0.447-0.174,0.944-0.262,1.492-0.262c0.708,0,1.318,0.15,1.827,0.453c0.507,0.296,0.893,0.684,1.142,1.159
				c0.253,0.477,0.38,0.959,0.38,1.454c0,0.454-0.132,0.75-0.393,0.887C276.853,457.371,276.486,457.439,276.011,457.439
				 M272.454,456.405h3.295c-0.044-0.62-0.209-1.086-0.5-1.392c-0.293-0.31-0.672-0.463-1.15-0.463
				c-0.452,0-0.825,0.154-1.116,0.469C272.693,455.332,272.515,455.793,272.454,456.405"/>
			<path style="fill:#E9FCFF;" d="M283.571,457.439h-3.555c0.004,0.412,0.088,0.778,0.248,1.092
				c0.162,0.313,0.378,0.551,0.645,0.712c0.268,0.159,0.565,0.238,0.891,0.238c0.216,0,0.415-0.023,0.592-0.078
				c0.181-0.049,0.354-0.13,0.526-0.239c0.17-0.107,0.322-0.223,0.465-0.351c0.14-0.122,0.325-0.291,0.552-0.504
				c0.094-0.079,0.228-0.122,0.398-0.122c0.188,0,0.339,0.052,0.456,0.155c0.116,0.103,0.168,0.246,0.168,0.433
				c0,0.165-0.061,0.356-0.191,0.574c-0.124,0.223-0.319,0.432-0.582,0.635c-0.259,0.2-0.589,0.369-0.978,0.5
				c-0.391,0.133-0.847,0.201-1.356,0.201c-1.168,0-2.074-0.331-2.724-0.996c-0.647-0.668-0.973-1.572-0.973-2.711
				c0-0.537,0.081-1.036,0.244-1.496c0.159-0.461,0.392-0.852,0.698-1.183c0.305-0.33,0.681-0.581,1.131-0.756
				c0.447-0.174,0.946-0.262,1.492-0.262c0.707,0,1.316,0.15,1.832,0.453c0.504,0.296,0.887,0.684,1.136,1.159
				c0.252,0.477,0.382,0.959,0.382,1.454c0,0.454-0.134,0.75-0.393,0.887C284.412,457.371,284.044,457.439,283.571,457.439
				 M280.015,456.405h3.295c-0.044-0.62-0.213-1.086-0.501-1.392c-0.295-0.31-0.674-0.463-1.151-0.463
				c-0.452,0-0.824,0.154-1.116,0.469C280.252,455.332,280.074,455.793,280.015,456.405"/>
			<path style="fill:#E9FCFF;" d="M287.551,454.318v0.218c0.341-0.421,0.697-0.73,1.068-0.928c0.363-0.199,0.784-0.299,1.249-0.299
				c0.557,0,1.076,0.146,1.547,0.433c0.47,0.29,0.84,0.712,1.114,1.266c0.273,0.557,0.411,1.212,0.411,1.972
				c0,0.558-0.079,1.073-0.235,1.543c-0.157,0.468-0.376,0.86-0.651,1.177c-0.276,0.316-0.6,0.562-0.974,0.733
				c-0.38,0.169-0.779,0.255-1.211,0.255c-0.517,0-0.956-0.104-1.307-0.314c-0.352-0.205-0.689-0.514-1.01-0.915v2.728
				c0,0.796-0.292,1.198-0.872,1.198c-0.344,0-0.567-0.103-0.681-0.308c-0.106-0.209-0.164-0.507-0.164-0.905v-7.845
				c0-0.347,0.075-0.602,0.225-0.776c0.15-0.168,0.359-0.255,0.62-0.255c0.259,0,0.467,0.088,0.628,0.262
				C287.472,453.736,287.551,453.986,287.551,454.318 M291.115,456.959c0-0.48-0.075-0.892-0.22-1.235
				c-0.146-0.345-0.35-0.608-0.607-0.79c-0.257-0.184-0.548-0.278-0.864-0.278c-0.5,0-0.924,0.199-1.268,0.591
				c-0.345,0.397-0.518,0.978-0.518,1.747c0,0.719,0.171,1.285,0.516,1.686c0.341,0.402,0.761,0.602,1.27,0.602
				c0.3,0,0.582-0.088,0.839-0.261c0.26-0.177,0.466-0.439,0.619-0.79C291.036,457.879,291.115,457.455,291.115,456.959"/>
			<path style="fill:#E9FCFF;" d="M294.77,452.45c-0.254,0-0.469-0.08-0.647-0.235c-0.182-0.156-0.272-0.373-0.272-0.656
				c0-0.258,0.092-0.469,0.278-0.638c0.183-0.164,0.397-0.249,0.641-0.249c0.238,0,0.445,0.075,0.626,0.224
				c0.182,0.153,0.274,0.374,0.274,0.663c0,0.28-0.089,0.498-0.265,0.656C295.227,452.37,295.016,452.45,294.77,452.45
				 M295.67,454.327v5.258c0,0.361-0.087,0.637-0.26,0.821c-0.175,0.189-0.393,0.281-0.66,0.281c-0.267,0-0.48-0.094-0.65-0.285
				c-0.164-0.194-0.249-0.466-0.249-0.817v-5.206c0-0.357,0.086-0.627,0.249-0.809c0.17-0.185,0.383-0.274,0.65-0.274
				c0.267,0,0.485,0.089,0.66,0.274C295.583,453.752,295.67,454.006,295.67,454.327"/>
			<path style="fill:#E9FCFF;" d="M301.529,459.857l-1.601-2.639l-0.987,0.931v1.447c0,0.35-0.093,0.618-0.278,0.806
				c-0.18,0.191-0.397,0.285-0.635,0.285c-0.279,0-0.501-0.092-0.659-0.281c-0.159-0.185-0.241-0.46-0.241-0.823v-7.754
				c0-0.402,0.08-0.709,0.232-0.921c0.156-0.214,0.382-0.317,0.668-0.317c0.28,0,0.5,0.096,0.665,0.288
				c0.164,0.19,0.248,0.472,0.248,0.842v4.41l2.044-2.146c0.254-0.264,0.444-0.449,0.58-0.546c0.133-0.097,0.294-0.146,0.483-0.146
				c0.229,0,0.416,0.073,0.571,0.216c0.148,0.145,0.224,0.327,0.224,0.542c0,0.266-0.248,0.623-0.739,1.066l-0.965,0.885
				l1.864,2.931c0.135,0.22,0.237,0.381,0.297,0.495c0.059,0.112,0.091,0.224,0.091,0.324c0,0.289-0.08,0.515-0.239,0.684
				c-0.157,0.166-0.367,0.248-0.621,0.248c-0.222,0-0.395-0.057-0.514-0.179C301.898,460.386,301.732,460.169,301.529,459.857"/>
			<path style="fill:#E9FCFF;" d="M305.478,460.687c-0.274,0-0.51-0.088-0.71-0.267c-0.199-0.174-0.3-0.424-0.3-0.746
				c0-0.27,0.096-0.504,0.287-0.698c0.192-0.196,0.426-0.294,0.706-0.294c0.278,0,0.515,0.098,0.716,0.289
				c0.196,0.193,0.296,0.429,0.296,0.702c0,0.317-0.1,0.566-0.296,0.743C305.977,460.599,305.744,460.687,305.478,460.687"/>
			<path style="fill:#E9FCFF;" d="M314.518,458.437c0,0.224-0.068,0.468-0.204,0.725c-0.134,0.259-0.342,0.503-0.621,0.736
				c-0.277,0.233-0.625,0.422-1.048,0.563c-0.421,0.142-0.897,0.215-1.423,0.215c-1.126,0-2.003-0.329-2.634-0.982
				c-0.628-0.656-0.943-1.534-0.943-2.635c0-0.748,0.143-1.406,0.434-1.979c0.285-0.571,0.704-1.014,1.249-1.327
				c0.546-0.314,1.202-0.47,1.958-0.47c0.472,0,0.903,0.069,1.299,0.207c0.393,0.137,0.723,0.316,0.999,0.532
				c0.271,0.221,0.48,0.451,0.623,0.695c0.145,0.247,0.216,0.477,0.216,0.692c0,0.215-0.079,0.4-0.24,0.552
				c-0.165,0.151-0.361,0.227-0.588,0.227c-0.153,0-0.279-0.04-0.379-0.116c-0.101-0.079-0.214-0.203-0.335-0.38
				c-0.222-0.335-0.453-0.59-0.698-0.756c-0.24-0.17-0.547-0.254-0.921-0.254c-0.534,0-0.97,0.209-1.299,0.629
				c-0.328,0.417-0.493,0.995-0.493,1.72c0,0.342,0.044,0.659,0.128,0.945c0.082,0.285,0.204,0.53,0.365,0.732
				c0.161,0.201,0.353,0.354,0.579,0.459c0.227,0.107,0.477,0.158,0.745,0.158c0.366,0,0.678-0.084,0.937-0.253
				c0.264-0.169,0.492-0.426,0.691-0.773c0.111-0.204,0.229-0.363,0.356-0.479c0.128-0.114,0.287-0.175,0.474-0.175
				c0.222,0,0.407,0.086,0.551,0.254C314.444,458.066,314.518,458.247,314.518,458.437"/>
			<path style="fill:#E9FCFF;" d="M322.361,456.993c0,0.539-0.086,1.04-0.249,1.499c-0.173,0.457-0.415,0.85-0.736,1.177
				c-0.319,0.328-0.702,0.58-1.144,0.757c-0.448,0.173-0.946,0.263-1.499,0.263c-0.55,0-1.047-0.089-1.487-0.268
				c-0.437-0.174-0.821-0.431-1.139-0.758c-0.323-0.334-0.567-0.725-0.737-1.175c-0.161-0.451-0.246-0.949-0.246-1.493
				c0-0.551,0.087-1.055,0.251-1.513c0.17-0.458,0.413-0.849,0.728-1.172c0.316-0.324,0.696-0.573,1.143-0.75
				c0.451-0.174,0.946-0.262,1.487-0.262c0.55,0,1.05,0.088,1.499,0.268c0.447,0.176,0.829,0.431,1.152,0.756
				c0.321,0.333,0.563,0.721,0.729,1.172C322.277,455.948,322.361,456.445,322.361,456.993 M320.536,456.993
				c0-0.742-0.164-1.318-0.489-1.73c-0.324-0.417-0.764-0.622-1.313-0.622c-0.356,0-0.669,0.092-0.941,0.276
				c-0.271,0.183-0.477,0.455-0.623,0.816c-0.147,0.36-0.221,0.78-0.221,1.261c0,0.476,0.072,0.888,0.217,1.243
				c0.146,0.358,0.352,0.629,0.621,0.817c0.27,0.187,0.585,0.283,0.948,0.283c0.55,0,0.989-0.207,1.313-0.625
				C320.372,458.297,320.536,457.723,320.536,456.993"/>
			<path style="fill:#E9FCFF;" d="M329.293,457.126v2.415c0,0.383-0.084,0.667-0.259,0.86c-0.175,0.191-0.4,0.286-0.685,0.286
				c-0.275,0-0.5-0.095-0.667-0.286c-0.173-0.194-0.261-0.477-0.261-0.86v-2.895c0-0.458-0.014-0.815-0.044-1.068
				c-0.032-0.248-0.118-0.459-0.254-0.619c-0.138-0.165-0.357-0.246-0.652-0.246c-0.596,0-0.986,0.203-1.175,0.617
				c-0.187,0.404-0.285,0.99-0.285,1.757v2.454c0,0.377-0.085,0.663-0.253,0.858c-0.174,0.192-0.398,0.289-0.676,0.289
				c-0.277,0-0.502-0.097-0.678-0.289c-0.176-0.194-0.263-0.48-0.263-0.858v-5.199c0-0.343,0.078-0.603,0.235-0.779
				c0.161-0.18,0.369-0.268,0.624-0.268c0.25,0,0.456,0.086,0.625,0.249c0.166,0.167,0.249,0.397,0.249,0.69v0.172
				c0.318-0.375,0.655-0.653,1.012-0.827c0.362-0.182,0.758-0.271,1.2-0.271c0.457,0,0.849,0.092,1.176,0.273
				c0.329,0.183,0.598,0.459,0.813,0.825c0.308-0.37,0.637-0.647,0.988-0.827c0.35-0.18,0.738-0.271,1.165-0.271
				c0.495,0,0.926,0.1,1.285,0.294c0.357,0.195,0.626,0.476,0.804,0.838c0.155,0.331,0.231,0.848,0.231,1.554v3.548
				c0,0.383-0.086,0.667-0.257,0.86c-0.172,0.191-0.403,0.286-0.686,0.286c-0.277,0-0.5-0.097-0.676-0.289
				c-0.175-0.194-0.263-0.48-0.263-0.858v-3.057c0-0.392-0.017-0.703-0.049-0.938c-0.033-0.236-0.124-0.435-0.268-0.593
				c-0.149-0.16-0.372-0.241-0.668-0.241c-0.24,0-0.467,0.075-0.682,0.215c-0.215,0.139-0.383,0.334-0.505,0.57
				C329.363,455.805,329.293,456.348,329.293,457.126"/>
		</g>
		<g>
			<path style="fill:#E9FCFF;" d="M244.698,456.553c-0.001-0.004-0.001-0.007-0.001-0.012
				C244.697,456.546,244.697,456.549,244.698,456.553z"/>
			<path style="fill:#E9FCFF;" d="M244.79,457.134c0.001,0,0.001,0,0.001,0c-0.034-0.166-0.061-0.33-0.083-0.492
				C244.73,456.805,244.757,456.97,244.79,457.134z"/>
			<path style="fill:#E9FCFF;" d="M245.391,458.82c-0.004-0.007-0.008-0.015-0.012-0.023
				C245.384,458.805,245.387,458.814,245.391,458.82z"/>
			<path style="fill:#E9FCFF;" d="M245.334,458.708c-0.016-0.031-0.031-0.063-0.046-0.094
				C245.303,458.647,245.318,458.677,245.334,458.708z"/>
			<path style="fill:#E9FCFF;" d="M244.959,457.783c0.089,0.281,0.196,0.552,0.32,0.812c-0.126-0.265-0.231-0.537-0.318-0.812
				H244.959z"/>
			<path style="fill:#E9FCFF;" d="M251.733,449.589c0.351,0,0.611,0.028,0.908,0.078l0.084-0.534c0,0-0.82-0.253-1.9-0.164
				l-0.085-0.291c0.335-0.07,0.587-0.369,0.587-0.725c0-0.408-0.332-0.739-0.741-0.739c-0.409,0-0.74,0.331-0.74,0.739
				c0,0.356,0.251,0.654,0.586,0.725l0.094,0.324c-1.145,0.157-2.057,0.604-2.057,0.604l0.162,0.494
				c0.693-0.231,1.294-0.371,1.839-0.43C251.004,449.613,251.405,449.589,251.733,449.589z"/>
			<path style="fill:#E9FCFF;" d="M245.378,452.293l0.004-0.005c0.027-0.035,0.053-0.068,0.079-0.1l-0.219-0.158l-0.342-0.25
				c-0.019,0.027-0.557,0.522-0.982,1.435c-0.018-0.029-0.039-0.057-0.063-0.083c-0.127-0.139-0.305-0.21-0.532-0.206
				c-0.003,0-0.007,0-0.01,0c-0.14,0-0.236-0.047-0.299-0.103c0.063-0.079,0.1-0.179,0.1-0.29c0-0.258-0.21-0.469-0.469-0.469
				c-0.258,0-0.469,0.211-0.469,0.469c0,0.259,0.21,0.469,0.469,0.469c0.041,0,0.079-0.007,0.117-0.014
				c0.115,0.128,0.298,0.24,0.566,0.234c0.138-0.001,0.239,0.034,0.307,0.109c0.078,0.085,0.104,0.207,0.112,0.3
				c-0.001,0.001-0.001,0.003-0.002,0.003c-0.305,0.834-0.218,1.871-0.218,1.871l0.741,0.029c0.015-0.378,0.069-1.039,0.26-1.563
				C244.897,452.955,245.359,452.32,245.378,452.293z"/>
			<path style="fill:#E9FCFF;" d="M258.18,450.208c-0.258,0-0.469,0.209-0.469,0.469c0,0.04,0.006,0.079,0.016,0.116
				c-0.129,0.117-0.24,0.3-0.236,0.568c0.002,0.138-0.033,0.238-0.108,0.306c-0.06,0.053-0.134,0.081-0.208,0.099
				c-0.552-0.773-1.23-1.244-1.23-1.244l-0.532,0.57c0.402,0.366,0.812,0.824,1.211,1.395c0.276,0.395,0.56,0.904,0.796,1.412
				l0.718-0.341c0,0-0.328-0.81-0.789-1.536c0.08-0.028,0.161-0.072,0.232-0.135c0.14-0.127,0.209-0.306,0.205-0.531
				c-0.001-0.146,0.047-0.244,0.104-0.309c0.08,0.061,0.18,0.1,0.289,0.1c0.26,0,0.469-0.21,0.469-0.469
				C258.65,450.418,258.44,450.208,258.18,450.208z"/>
			<path style="fill:#E9FCFF;" d="M256.318,456.658c-0.988,0.481-2.613,1.117-4.753,1.415c-0.84,0.116-1.653,0.159-2.402,0.159
				c-0.975,0-1.836-0.073-2.497-0.156c-0.754-0.095-1.344-0.211-1.705-0.293c0.087,0.275,0.192,0.547,0.318,0.812
				c0.002,0.007,0.005,0.014,0.009,0.019c0.015,0.031,0.03,0.063,0.046,0.094c0.015,0.031,0.03,0.061,0.046,0.089
				c0.005,0.008,0.008,0.016,0.012,0.023c0.212,0.4,0.467,0.767,0.757,1.085c1.009,1.104,2.038,1.278,2.047,1.28l0.016,0.002
				l0.015,0.005c0.009,0.003,0.921,0.298,2.307,0.298c1.363,0,2.701-0.275,3.976-0.818c0.945-0.483,1.838-1.217,2.281-1.871
				c0.342-0.507,0.589-1.046,0.736-1.608c0.078-0.298,0.139-0.776,0.103-1.279C257.352,456.102,256.913,456.368,256.318,456.658z"/>
			<path style="fill:#E9FCFF;" d="M245.695,452.527c-0.029,0.042-0.457,0.648-0.796,1.579c-0.254,0.697-0.242,1.712-0.242,1.724
				v0.002c0,0.238,0.013,0.474,0.04,0.708c0,0.005,0,0.009,0.001,0.012c0.003,0.03,0.008,0.059,0.01,0.089
				c0.021,0.162,0.048,0.326,0.083,0.492c0.491,0.125,3.419,0.808,6.692,0.352c2.051-0.285,3.609-0.892,4.555-1.35
				c0.786-0.381,1.291-0.726,1.486-0.868c-0.194-0.721-0.73-1.851-1.222-2.556c-1.405-2.008-2.921-2.523-3.699-2.651
				c-0.297-0.049-0.534-0.077-0.871-0.077c-0.314,0-0.702,0.025-1.222,0.08c-0.521,0.054-1.101,0.191-1.774,0.417
				c-0.945,0.316-1.799,0.813-2.472,1.435l-0.023,0.021C246.142,452.03,245.934,452.223,245.695,452.527z M254.294,452.06
				c0.674,0,1.222,0.547,1.222,1.222c0,0.674-0.548,1.222-1.222,1.222c-0.674,0-1.221-0.548-1.221-1.222
				C253.073,452.607,253.62,452.06,254.294,452.06z M248.518,452.011c1.091,0,1.974,0.884,1.974,1.975s-0.883,1.972-1.974,1.972
				c-1.09,0-1.974-0.882-1.974-1.972S247.428,452.011,248.518,452.011z"/>
		</g>
	</g>
</g>
</svg>
