<?xml version="1.0" encoding="utf-8"?>
<!-- Generator: Adobe Illustrator 27.5.0, SVG Export Plug-In . SVG Version: 6.00 Build 0)  -->
<svg version="1.1" xmlns="http://www.w3.org/2000/svg" xmlns:xlink="http://www.w3.org/1999/xlink" x="0px" y="0px"
	 viewBox="0 0 500 500" style="enable-background:new 0 0 500 500;" xml:space="preserve">
<g id="BACKGROUND">
	<rect style="fill:#858E9F;" width="500" height="500"/>
</g>
<g id="OBJECTS">
	<g>
		<g>
			<g>
				<circle style="fill:#FFFFFF;" cx="251.251" cy="217" r="107.749"/>
			</g>
		</g>
	</g>
	<rect y="343" style="fill:none;" width="500" height="45.333"/>
	<text transform="matrix(1 0 0 1 126.9043 374.9492)" style="fill:#FFFFFF; font-family:'Raleway-Bold'; font-size:45px;">Music Logo</text>
	<g>
		<rect y="394.333" style="fill:none;" width="500" height="45.333"/>
		<text transform="matrix(1 0 0 1 175.6313 408.5335)" style="fill:#F1F5F8; font-family:'FiraSans-Regular'; font-size:20px;">Your Tagline Here</text>
	</g>
</g>
<g id="DESIGNED_BY_FREEPIK">
	<g>
		<g>
			<g>
				<path style="fill:#FFFFFF;" d="M179.731,483.894v-0.161c-0.218,0.249-0.433,0.452-0.644,0.608
					c-0.212,0.157-0.441,0.276-0.689,0.357c-0.247,0.082-0.517,0.122-0.81,0.122c-0.388,0-0.747-0.082-1.078-0.246
					c-0.33-0.164-0.616-0.399-0.857-0.704c-0.242-0.305-0.425-0.662-0.549-1.074c-0.124-0.412-0.187-0.857-0.187-1.335
					c0-1.013,0.248-1.804,0.742-2.369c0.495-0.565,1.146-0.848,1.953-0.848c0.467,0,0.861,0.081,1.181,0.24
					c0.321,0.16,0.633,0.408,0.938,0.739v-2.392c0-0.333,0.066-0.583,0.199-0.754c0.132-0.17,0.321-0.255,0.567-0.255
					c0.245,0,0.434,0.078,0.567,0.234c0.133,0.157,0.199,0.386,0.199,0.691v7.147c0,0.309-0.071,0.54-0.214,0.694
					c-0.143,0.154-0.326,0.231-0.552,0.231c-0.221,0-0.405-0.08-0.549-0.24C179.803,484.418,179.731,484.19,179.731,483.894z
					 M176.543,481.513c0,0.439,0.068,0.813,0.205,1.122c0.137,0.309,0.324,0.541,0.561,0.697c0.238,0.157,0.497,0.236,0.778,0.236
					c0.285,0,0.545-0.074,0.781-0.223c0.235-0.148,0.423-0.376,0.564-0.682c0.141-0.307,0.21-0.691,0.21-1.149
					c0-0.432-0.07-0.803-0.21-1.114c-0.14-0.31-0.33-0.548-0.57-0.712c-0.24-0.164-0.502-0.245-0.786-0.245
					c-0.297,0-0.562,0.084-0.796,0.252c-0.233,0.168-0.414,0.409-0.543,0.724C176.607,480.733,176.543,481.098,176.543,481.513z"/>
				<path style="fill:#FFFFFF;" d="M186.877,481.923h-3.169c0.004,0.367,0.078,0.692,0.223,0.973
					c0.144,0.281,0.336,0.493,0.576,0.635c0.24,0.143,0.504,0.213,0.793,0.213c0.194,0,0.371-0.022,0.531-0.067
					c0.161-0.046,0.316-0.117,0.466-0.214c0.15-0.096,0.289-0.201,0.415-0.312c0.126-0.111,0.29-0.262,0.493-0.452
					c0.083-0.071,0.202-0.107,0.357-0.107c0.166,0,0.3,0.046,0.403,0.137c0.103,0.092,0.155,0.219,0.155,0.386
					c0,0.147-0.058,0.317-0.172,0.513c-0.116,0.196-0.289,0.384-0.52,0.564c-0.232,0.18-0.522,0.329-0.873,0.448
					c-0.35,0.119-0.753,0.178-1.208,0.178c-1.04,0-1.85-0.297-2.428-0.891c-0.578-0.593-0.866-1.399-0.866-2.416
					c0-0.479,0.071-0.923,0.213-1.332c0.143-0.41,0.351-0.761,0.623-1.054c0.273-0.293,0.609-0.517,1.009-0.674
					c0.4-0.156,0.843-0.234,1.33-0.234c0.633,0,1.176,0.133,1.629,0.4c0.454,0.267,0.794,0.612,1.019,1.035
					c0.225,0.424,0.339,0.856,0.339,1.294c0,0.408-0.117,0.672-0.35,0.793C187.63,481.862,187.301,481.923,186.877,481.923z
					 M183.707,481.003h2.938c-0.039-0.554-0.189-0.969-0.448-1.244c-0.259-0.275-0.6-0.413-1.024-0.413
					c-0.404,0-0.735,0.139-0.994,0.418C183.92,480.043,183.763,480.457,183.707,481.003z"/>
				<path style="fill:#FFFFFF;" d="M194.261,482.7c0,0.447-0.108,0.831-0.327,1.149c-0.217,0.319-0.539,0.56-0.965,0.725
					c-0.425,0.164-0.943,0.246-1.552,0.246c-0.582,0-1.08-0.089-1.496-0.267c-0.415-0.178-0.722-0.401-0.92-0.667
					c-0.198-0.268-0.297-0.535-0.297-0.805c0-0.178,0.063-0.33,0.19-0.456c0.126-0.126,0.287-0.19,0.481-0.19
					c0.17,0,0.3,0.042,0.391,0.125c0.091,0.083,0.178,0.2,0.261,0.35c0.166,0.29,0.366,0.504,0.597,0.648
					c0.231,0.142,0.547,0.214,0.947,0.214c0.324,0,0.59-0.073,0.798-0.217c0.208-0.145,0.311-0.31,0.311-0.496
					c0-0.285-0.107-0.492-0.324-0.623c-0.216-0.131-0.571-0.256-1.066-0.375c-0.558-0.138-1.012-0.284-1.362-0.436
					c-0.35-0.151-0.63-0.353-0.84-0.602c-0.21-0.25-0.315-0.557-0.315-0.92c0-0.324,0.097-0.631,0.291-0.92
					c0.194-0.288,0.48-0.519,0.858-0.691c0.377-0.173,0.833-0.259,1.368-0.259c0.419,0,0.797,0.043,1.131,0.131
					c0.335,0.086,0.614,0.204,0.837,0.35c0.224,0.146,0.394,0.308,0.51,0.486c0.117,0.178,0.175,0.352,0.175,0.523
					c0,0.185-0.062,0.338-0.187,0.457c-0.124,0.118-0.301,0.178-0.532,0.178c-0.166,0-0.308-0.048-0.424-0.143
					c-0.117-0.095-0.25-0.237-0.401-0.427c-0.123-0.158-0.266-0.285-0.433-0.38c-0.166-0.095-0.392-0.142-0.677-0.142
					c-0.293,0-0.536,0.062-0.73,0.187c-0.194,0.124-0.291,0.279-0.291,0.465c0,0.171,0.071,0.31,0.213,0.419
					c0.143,0.109,0.334,0.2,0.576,0.27c0.242,0.071,0.573,0.158,0.997,0.261c0.502,0.123,0.912,0.27,1.231,0.44
					c0.318,0.17,0.56,0.371,0.725,0.603C194.179,482.139,194.261,482.403,194.261,482.7z"/>
				<path style="fill:#FFFFFF;" d="M195.917,477.477c-0.226,0-0.418-0.07-0.579-0.208c-0.16-0.138-0.24-0.334-0.24-0.588
					c0-0.23,0.082-0.418,0.246-0.567c0.164-0.149,0.355-0.223,0.573-0.223c0.21,0,0.396,0.067,0.558,0.202
					c0.162,0.135,0.244,0.33,0.244,0.588c0,0.25-0.08,0.444-0.238,0.585C196.322,477.406,196.134,477.477,195.917,477.477z
					 M196.719,479.151v4.683c0,0.325-0.077,0.571-0.232,0.737c-0.155,0.166-0.35,0.249-0.588,0.249
					c-0.238,0-0.431-0.085-0.579-0.255c-0.149-0.17-0.222-0.414-0.222-0.73v-4.636c0-0.32,0.074-0.561,0.222-0.724
					c0.148-0.162,0.341-0.243,0.579-0.243c0.238,0,0.433,0.081,0.588,0.243C196.641,478.636,196.719,478.862,196.719,479.151z"/>
				<path style="fill:#FFFFFF;" d="M203.818,479.418v4.707c0,0.538-0.058,1.001-0.173,1.39c-0.114,0.387-0.298,0.708-0.552,0.961
					c-0.253,0.253-0.585,0.441-0.994,0.563c-0.41,0.123-0.919,0.184-1.529,0.184c-0.558,0-1.056-0.078-1.496-0.234
					c-0.439-0.157-0.777-0.358-1.015-0.605c-0.237-0.247-0.356-0.502-0.356-0.763c0-0.198,0.067-0.359,0.202-0.483
					c0.134-0.125,0.297-0.187,0.487-0.187c0.237,0,0.445,0.105,0.623,0.314c0.087,0.107,0.177,0.216,0.27,0.324
					c0.093,0.109,0.197,0.202,0.309,0.28c0.113,0.076,0.249,0.134,0.406,0.172c0.158,0.037,0.341,0.056,0.546,0.056
					c0.42,0,0.745-0.058,0.977-0.175c0.232-0.117,0.394-0.28,0.487-0.49c0.093-0.209,0.147-0.433,0.163-0.673
					s0.027-0.624,0.035-1.155c-0.25,0.349-0.537,0.615-0.864,0.797c-0.326,0.182-0.715,0.273-1.166,0.273
					c-0.542,0-1.016-0.138-1.422-0.416c-0.405-0.277-0.717-0.665-0.934-1.163c-0.218-0.499-0.326-1.074-0.326-1.727
					c0-0.486,0.066-0.927,0.198-1.318c0.133-0.393,0.322-0.723,0.567-0.992c0.245-0.269,0.528-0.472,0.849-0.608
					c0.32-0.136,0.673-0.204,1.057-0.204c0.459,0,0.857,0.089,1.193,0.264c0.336,0.177,0.649,0.453,0.938,0.829v-0.22
					c0-0.281,0.069-0.498,0.208-0.653c0.139-0.154,0.317-0.231,0.535-0.231c0.313,0,0.52,0.103,0.623,0.306
					C203.766,478.74,203.818,479.034,203.818,479.418z M199.122,481.472c0,0.657,0.143,1.154,0.43,1.49
					c0.287,0.337,0.658,0.505,1.113,0.505c0.269,0,0.523-0.073,0.762-0.217c0.24-0.145,0.435-0.362,0.585-0.653
					c0.15-0.291,0.226-0.644,0.226-1.06c0-0.66-0.145-1.176-0.436-1.543c-0.291-0.368-0.674-0.552-1.149-0.552
					c-0.463,0-0.834,0.176-1.113,0.529C199.261,480.322,199.122,480.823,199.122,481.472z"/>
				<path style="fill:#FFFFFF;" d="M206.393,479.127v0.196c0.285-0.376,0.596-0.652,0.935-0.828
					c0.338-0.176,0.727-0.264,1.166-0.264c0.427,0,0.809,0.093,1.146,0.28c0.336,0.186,0.588,0.449,0.754,0.789
					c0.107,0.198,0.176,0.413,0.208,0.641c0.032,0.23,0.048,0.522,0.048,0.879v3.015c0,0.325-0.074,0.571-0.223,0.737
					c-0.148,0.166-0.341,0.249-0.579,0.249c-0.242,0-0.437-0.085-0.588-0.255c-0.151-0.17-0.225-0.414-0.225-0.73v-2.701
					c0-0.534-0.075-0.943-0.223-1.226c-0.149-0.283-0.444-0.425-0.888-0.425c-0.288,0-0.552,0.086-0.789,0.258
					c-0.237,0.173-0.412,0.41-0.522,0.71c-0.079,0.242-0.119,0.692-0.119,1.353v2.03c0,0.328-0.077,0.576-0.228,0.74
					c-0.152,0.164-0.349,0.246-0.59,0.246c-0.234,0-0.426-0.085-0.576-0.255c-0.15-0.17-0.226-0.414-0.226-0.73v-4.683
					c0-0.309,0.067-0.54,0.202-0.692c0.135-0.152,0.319-0.228,0.552-0.228c0.143,0,0.272,0.034,0.387,0.101
					c0.114,0.068,0.207,0.168,0.276,0.302C206.359,478.768,206.393,478.933,206.393,479.127z"/>
				<path style="fill:#FFFFFF;" d="M216.252,481.923h-3.17c0.004,0.367,0.078,0.692,0.223,0.973
					c0.144,0.281,0.336,0.493,0.576,0.635c0.239,0.143,0.503,0.213,0.792,0.213c0.194,0,0.371-0.022,0.532-0.067
					c0.16-0.046,0.315-0.117,0.466-0.214c0.15-0.096,0.288-0.201,0.416-0.312c0.126-0.111,0.29-0.262,0.492-0.452
					c0.083-0.071,0.202-0.107,0.356-0.107c0.166,0,0.301,0.046,0.404,0.137c0.103,0.092,0.154,0.219,0.154,0.386
					c0,0.147-0.057,0.317-0.172,0.513c-0.115,0.196-0.288,0.384-0.52,0.564c-0.232,0.18-0.522,0.329-0.872,0.448
					c-0.35,0.119-0.753,0.178-1.208,0.178c-1.041,0-1.85-0.297-2.428-0.891c-0.577-0.593-0.866-1.399-0.866-2.416
					c0-0.479,0.071-0.923,0.214-1.332c0.143-0.41,0.351-0.761,0.624-1.054c0.273-0.293,0.609-0.517,1.009-0.674
					c0.399-0.156,0.843-0.234,1.33-0.234c0.633,0,1.176,0.133,1.629,0.4c0.453,0.267,0.793,0.612,1.019,1.035
					c0.225,0.424,0.338,0.856,0.338,1.294c0,0.408-0.116,0.672-0.35,0.793C217.005,481.862,216.676,481.923,216.252,481.923z
					 M213.083,481.003h2.938c-0.039-0.554-0.189-0.969-0.448-1.244c-0.259-0.275-0.6-0.413-1.024-0.413
					c-0.404,0-0.736,0.139-0.995,0.418C213.295,480.043,213.138,480.457,213.083,481.003z"/>
				<path style="fill:#FFFFFF;" d="M222.858,483.894v-0.161c-0.218,0.249-0.432,0.452-0.644,0.608
					c-0.212,0.157-0.441,0.276-0.688,0.357c-0.247,0.082-0.517,0.122-0.81,0.122c-0.389,0-0.747-0.082-1.078-0.246
					c-0.33-0.164-0.616-0.399-0.858-0.704c-0.242-0.305-0.424-0.662-0.549-1.074c-0.125-0.412-0.187-0.857-0.187-1.335
					c0-1.013,0.247-1.804,0.742-2.369c0.495-0.565,1.146-0.848,1.953-0.848c0.467,0,0.861,0.081,1.181,0.24
					c0.32,0.16,0.633,0.408,0.938,0.739v-2.392c0-0.333,0.066-0.583,0.199-0.754c0.132-0.17,0.322-0.255,0.567-0.255
					c0.245,0,0.434,0.078,0.567,0.234c0.133,0.157,0.199,0.386,0.199,0.691v7.147c0,0.309-0.071,0.54-0.214,0.694
					c-0.142,0.154-0.326,0.231-0.552,0.231c-0.222,0-0.405-0.08-0.549-0.24C222.931,484.418,222.858,484.19,222.858,483.894z
					 M219.671,481.513c0,0.439,0.068,0.813,0.204,1.122c0.137,0.309,0.324,0.541,0.561,0.697c0.237,0.157,0.496,0.236,0.777,0.236
					c0.285,0,0.546-0.074,0.781-0.223c0.236-0.148,0.424-0.376,0.564-0.682c0.141-0.307,0.211-0.691,0.211-1.149
					c0-0.432-0.07-0.803-0.211-1.114c-0.14-0.31-0.33-0.548-0.57-0.712c-0.24-0.164-0.502-0.245-0.787-0.245
					c-0.296,0-0.562,0.084-0.795,0.252c-0.233,0.168-0.414,0.409-0.543,0.724C219.735,480.733,219.671,481.098,219.671,481.513z"/>
				<path style="fill:#FFFFFF;" d="M229.482,476.746v2.475c0.304-0.316,0.615-0.559,0.932-0.727
					c0.316-0.168,0.709-0.252,1.176-0.252c0.538,0,1.01,0.128,1.416,0.382c0.405,0.256,0.72,0.626,0.944,1.111
					c0.223,0.484,0.336,1.06,0.336,1.725c0,0.491-0.063,0.94-0.187,1.35c-0.125,0.409-0.306,0.765-0.543,1.065
					c-0.238,0.301-0.525,0.534-0.864,0.698c-0.339,0.164-0.712,0.246-1.119,0.246c-0.25,0-0.484-0.029-0.703-0.089
					c-0.22-0.059-0.407-0.137-0.561-0.234c-0.154-0.096-0.286-0.197-0.395-0.3c-0.109-0.103-0.253-0.258-0.431-0.463v0.161
					c0,0.305-0.073,0.535-0.22,0.692c-0.146,0.156-0.332,0.234-0.558,0.234c-0.23,0-0.413-0.077-0.549-0.234
					c-0.137-0.157-0.205-0.388-0.205-0.692v-7.077c0-0.328,0.066-0.577,0.198-0.745c0.133-0.168,0.318-0.252,0.555-0.252
					c0.25,0,0.441,0.08,0.576,0.24C229.415,476.221,229.482,476.449,229.482,476.746z M229.559,481.561
					c0,0.645,0.148,1.14,0.442,1.486c0.295,0.347,0.682,0.521,1.161,0.521c0.407,0,0.759-0.177,1.053-0.532
					c0.295-0.355,0.442-0.862,0.442-1.523c0-0.427-0.061-0.796-0.184-1.104c-0.123-0.309-0.297-0.548-0.522-0.715
					c-0.226-0.168-0.489-0.252-0.79-0.252c-0.309,0-0.584,0.084-0.825,0.252c-0.242,0.168-0.431,0.411-0.57,0.73
					C229.629,480.742,229.559,481.121,229.559,481.561z"/>
				<path style="fill:#FFFFFF;" d="M236.386,485.022l0.148-0.363l-1.995-5.022c-0.122-0.288-0.184-0.499-0.184-0.629
					c0-0.139,0.036-0.267,0.107-0.385c0.071-0.119,0.169-0.214,0.294-0.285c0.125-0.072,0.255-0.107,0.389-0.107
					c0.233,0,0.409,0.074,0.529,0.223c0.119,0.148,0.223,0.361,0.314,0.638l1.371,3.989l1.3-3.71c0.103-0.3,0.196-0.536,0.279-0.706
					c0.083-0.17,0.171-0.285,0.264-0.344c0.093-0.06,0.225-0.09,0.395-0.09c0.123,0,0.241,0.032,0.353,0.098
					c0.113,0.065,0.2,0.153,0.261,0.264c0.061,0.11,0.092,0.227,0.092,0.35c-0.016,0.075-0.042,0.182-0.077,0.321
					c-0.036,0.138-0.079,0.28-0.13,0.421l-2.113,5.533c-0.183,0.487-0.361,0.868-0.535,1.145c-0.174,0.277-0.404,0.491-0.691,0.638
					c-0.287,0.149-0.674,0.223-1.161,0.223c-0.475,0-0.831-0.051-1.068-0.154c-0.238-0.104-0.356-0.292-0.356-0.564
					c0-0.186,0.056-0.33,0.169-0.43c0.112-0.101,0.28-0.152,0.501-0.152c0.087,0,0.173,0.012,0.256,0.037
					c0.103,0.023,0.192,0.035,0.267,0.035c0.186,0,0.333-0.027,0.44-0.084c0.107-0.055,0.202-0.151,0.288-0.288
					C236.177,485.488,236.275,485.286,236.386,485.022z"/>
			</g>
			<g>
				<path style="fill:#FFFFFF;" d="M259.863,478.371h0.386v-0.487c0-0.509,0.062-0.911,0.192-1.211
					c0.128-0.299,0.347-0.516,0.654-0.653c0.307-0.135,0.727-0.204,1.26-0.204c0.95,0,1.42,0.229,1.42,0.697
					c0,0.149-0.049,0.278-0.15,0.384c-0.096,0.106-0.214,0.16-0.349,0.16c-0.062,0-0.174-0.012-0.329-0.037
					c-0.148-0.021-0.283-0.035-0.389-0.035c-0.292,0-0.479,0.088-0.566,0.259c-0.079,0.172-0.122,0.418-0.122,0.74v0.386h0.396
					c0.62,0,0.926,0.185,0.926,0.56c0,0.262-0.079,0.431-0.245,0.503c-0.164,0.071-0.39,0.107-0.681,0.107h-0.396v4.294
					c0,0.319-0.075,0.563-0.231,0.73c-0.151,0.17-0.346,0.254-0.589,0.254c-0.229,0-0.419-0.084-0.574-0.254
					c-0.153-0.167-0.228-0.411-0.228-0.73v-4.294h-0.446c-0.243,0-0.427-0.053-0.558-0.164c-0.131-0.107-0.197-0.25-0.197-0.423
					C259.048,478.563,259.319,478.371,259.863,478.371"/>
				<path style="fill:#FFFFFF;" d="M265.168,482.479v1.355c0,0.327-0.083,0.574-0.234,0.737c-0.154,0.166-0.349,0.247-0.586,0.247
					c-0.239,0-0.43-0.082-0.579-0.25c-0.148-0.165-0.225-0.41-0.225-0.734v-4.514c0-0.729,0.262-1.093,0.788-1.093
					c0.271,0,0.464,0.084,0.583,0.255c0.119,0.171,0.184,0.421,0.198,0.755c0.192-0.334,0.39-0.584,0.593-0.755
					c0.208-0.171,0.477-0.255,0.819-0.255c0.343,0,0.67,0.084,0.991,0.255c0.322,0.171,0.482,0.398,0.482,0.678
					c0,0.197-0.069,0.362-0.204,0.488c-0.137,0.131-0.284,0.195-0.441,0.195c-0.062,0-0.207-0.039-0.433-0.112
					c-0.228-0.071-0.43-0.108-0.602-0.108c-0.237,0-0.433,0.064-0.582,0.186c-0.151,0.128-0.269,0.311-0.353,0.554
					c-0.081,0.247-0.137,0.541-0.17,0.878C265.182,481.58,265.168,481.993,265.168,482.479"/>
				<path style="fill:#FFFFFF;" d="M272.619,481.922h-3.171c0.005,0.367,0.077,0.694,0.222,0.974
					c0.147,0.279,0.337,0.491,0.578,0.635c0.24,0.142,0.502,0.212,0.793,0.212c0.194,0,0.37-0.021,0.531-0.07
					c0.159-0.043,0.316-0.116,0.466-0.213c0.151-0.095,0.288-0.199,0.415-0.313c0.126-0.109,0.292-0.26,0.494-0.449
					c0.084-0.071,0.203-0.109,0.355-0.109c0.168,0,0.301,0.046,0.406,0.139c0.104,0.092,0.152,0.219,0.152,0.386
					c0,0.147-0.055,0.317-0.167,0.512c-0.117,0.198-0.289,0.385-0.523,0.566c-0.234,0.178-0.524,0.329-0.873,0.446
					c-0.35,0.119-0.754,0.179-1.207,0.179c-1.044,0-1.853-0.296-2.429-0.889c-0.577-0.595-0.87-1.401-0.87-2.418
					c0-0.479,0.073-0.924,0.217-1.334c0.14-0.411,0.349-0.76,0.624-1.055c0.272-0.294,0.606-0.518,1.008-0.674
					c0.399-0.156,0.842-0.234,1.33-0.234c0.632,0,1.176,0.134,1.629,0.403c0.452,0.264,0.796,0.61,1.018,1.034
					c0.226,0.426,0.339,0.855,0.339,1.296c0,0.405-0.118,0.669-0.351,0.791C273.37,481.861,273.043,481.922,272.619,481.922
					 M269.448,481h2.938c-0.039-0.553-0.186-0.969-0.446-1.241c-0.261-0.277-0.599-0.413-1.025-0.413
					c-0.403,0-0.736,0.137-0.995,0.418C269.661,480.043,269.502,480.454,269.448,481"/>
				<path style="fill:#FFFFFF;" d="M279.361,481.922h-3.171c0.003,0.367,0.078,0.694,0.221,0.974
					c0.145,0.279,0.337,0.491,0.576,0.635c0.239,0.142,0.503,0.212,0.795,0.212c0.192,0,0.371-0.021,0.528-0.07
					c0.162-0.043,0.316-0.116,0.469-0.213c0.151-0.095,0.287-0.199,0.415-0.313c0.125-0.109,0.29-0.26,0.493-0.449
					c0.084-0.071,0.204-0.109,0.355-0.109c0.168,0,0.302,0.046,0.406,0.139c0.103,0.092,0.15,0.219,0.15,0.386
					c0,0.147-0.054,0.317-0.171,0.512c-0.111,0.198-0.285,0.385-0.519,0.566c-0.231,0.178-0.525,0.329-0.872,0.446
					c-0.348,0.119-0.755,0.179-1.209,0.179c-1.042,0-1.849-0.296-2.429-0.889c-0.577-0.595-0.868-1.401-0.868-2.418
					c0-0.479,0.073-0.924,0.217-1.334c0.142-0.411,0.349-0.76,0.623-1.055c0.272-0.294,0.608-0.518,1.009-0.674
					c0.398-0.156,0.844-0.234,1.331-0.234c0.63,0,1.174,0.134,1.633,0.403c0.45,0.264,0.791,0.61,1.013,1.034
					c0.225,0.426,0.341,0.855,0.341,1.296c0,0.405-0.12,0.669-0.351,0.791C280.111,481.861,279.783,481.922,279.361,481.922
					 M276.19,481h2.938c-0.04-0.553-0.19-0.969-0.447-1.241c-0.263-0.277-0.601-0.413-1.027-0.413c-0.403,0-0.735,0.137-0.996,0.418
					C276.401,480.043,276.243,480.454,276.19,481"/>
				<path style="fill:#FFFFFF;" d="M282.911,479.139v0.194c0.304-0.375,0.621-0.651,0.953-0.828
					c0.324-0.178,0.699-0.267,1.114-0.267c0.497,0,0.96,0.13,1.379,0.386c0.419,0.259,0.749,0.635,0.993,1.129
					c0.244,0.497,0.366,1.081,0.366,1.758c0,0.497-0.07,0.957-0.21,1.376c-0.14,0.418-0.336,0.767-0.581,1.05
					c-0.246,0.281-0.535,0.501-0.868,0.654c-0.339,0.151-0.695,0.227-1.08,0.227c-0.461,0-0.853-0.093-1.166-0.28
					c-0.314-0.182-0.614-0.458-0.901-0.816v2.433c0,0.71-0.26,1.069-0.777,1.069c-0.307,0-0.505-0.092-0.607-0.275
					c-0.095-0.187-0.146-0.452-0.146-0.807v-6.996c0-0.309,0.066-0.537,0.2-0.692c0.134-0.15,0.32-0.228,0.553-0.228
					c0.231,0,0.416,0.078,0.56,0.234C282.84,478.62,282.911,478.842,282.911,479.139 M286.088,481.494
					c0-0.428-0.067-0.796-0.197-1.102c-0.131-0.308-0.312-0.542-0.541-0.705c-0.229-0.164-0.489-0.248-0.77-0.248
					c-0.446,0-0.824,0.178-1.13,0.527c-0.308,0.354-0.462,0.872-0.462,1.558c0,0.642,0.153,1.146,0.46,1.504
					c0.305,0.358,0.679,0.536,1.133,0.536c0.268,0,0.519-0.079,0.748-0.233c0.232-0.158,0.416-0.392,0.552-0.704
					C286.019,482.315,286.088,481.936,286.088,481.494"/>
				<path style="fill:#FFFFFF;" d="M289.348,477.473c-0.226,0-0.418-0.071-0.577-0.209c-0.162-0.139-0.242-0.333-0.242-0.585
					c0-0.23,0.082-0.419,0.248-0.569c0.164-0.146,0.354-0.222,0.571-0.222c0.212,0,0.397,0.067,0.559,0.2
					c0.162,0.137,0.244,0.334,0.244,0.591c0,0.25-0.079,0.444-0.236,0.585C289.756,477.401,289.568,477.473,289.348,477.473
					 M290.151,479.147v4.689c0,0.322-0.077,0.568-0.231,0.732c-0.156,0.168-0.35,0.25-0.588,0.25c-0.238,0-0.428-0.084-0.58-0.254
					c-0.146-0.173-0.222-0.416-0.222-0.729v-4.642c0-0.319,0.076-0.559,0.222-0.721c0.152-0.165,0.342-0.245,0.58-0.245
					c0.238,0,0.432,0.079,0.588,0.245C290.073,478.634,290.151,478.861,290.151,479.147"/>
				<path style="fill:#FFFFFF;" d="M295.375,484.079l-1.428-2.354l-0.88,0.83v1.291c0,0.312-0.083,0.551-0.248,0.718
					c-0.16,0.17-0.354,0.254-0.566,0.254c-0.249,0-0.447-0.082-0.588-0.25c-0.142-0.165-0.215-0.41-0.215-0.734v-6.915
					c0-0.358,0.071-0.632,0.207-0.821c0.139-0.191,0.341-0.283,0.596-0.283c0.25,0,0.445,0.086,0.593,0.257
					c0.146,0.169,0.221,0.421,0.221,0.751v3.933l1.823-1.914c0.227-0.235,0.395-0.4,0.517-0.486c0.118-0.087,0.262-0.13,0.431-0.13
					c0.204,0,0.371,0.065,0.51,0.193c0.132,0.129,0.2,0.291,0.2,0.483c0,0.237-0.221,0.555-0.659,0.951l-0.86,0.789l1.662,2.614
					c0.121,0.196,0.212,0.34,0.265,0.441c0.052,0.099,0.081,0.2,0.081,0.289c0,0.258-0.071,0.459-0.213,0.61
					c-0.14,0.148-0.327,0.221-0.554,0.221c-0.198,0-0.352-0.051-0.458-0.16C295.705,484.55,295.557,484.356,295.375,484.079"/>
				<path style="fill:#FFFFFF;" d="M298.898,484.818c-0.245,0-0.455-0.079-0.634-0.238c-0.178-0.156-0.268-0.378-0.268-0.665
					c0-0.241,0.086-0.449,0.256-0.622c0.172-0.174,0.38-0.262,0.63-0.262c0.248,0,0.46,0.087,0.639,0.258
					c0.174,0.172,0.264,0.383,0.264,0.626c0,0.283-0.089,0.505-0.264,0.662C299.342,484.74,299.134,484.818,298.898,484.818"/>
				<path style="fill:#FFFFFF;" d="M306.959,482.812c0,0.2-0.061,0.418-0.182,0.646c-0.12,0.231-0.305,0.449-0.554,0.656
					c-0.247,0.208-0.557,0.377-0.934,0.502c-0.375,0.126-0.8,0.192-1.269,0.192c-1.004,0-1.786-0.293-2.349-0.876
					c-0.56-0.585-0.841-1.368-0.841-2.35c0-0.667,0.128-1.254,0.387-1.765c0.254-0.509,0.628-0.904,1.113-1.184
					c0.487-0.28,1.072-0.419,1.746-0.419c0.421,0,0.805,0.061,1.158,0.184c0.35,0.122,0.645,0.282,0.891,0.474
					c0.242,0.197,0.428,0.402,0.556,0.62c0.129,0.22,0.192,0.426,0.192,0.617c0,0.192-0.071,0.357-0.214,0.492
					c-0.147,0.134-0.322,0.203-0.524,0.203c-0.137,0-0.249-0.035-0.338-0.104c-0.09-0.07-0.19-0.181-0.299-0.339
					c-0.198-0.299-0.404-0.526-0.622-0.674c-0.214-0.152-0.488-0.226-0.821-0.226c-0.476,0-0.865,0.186-1.159,0.561
					c-0.292,0.372-0.44,0.887-0.44,1.534c0,0.305,0.039,0.587,0.114,0.842c0.073,0.254,0.182,0.472,0.325,0.652
					c0.144,0.179,0.315,0.315,0.516,0.409c0.203,0.096,0.425,0.141,0.665,0.141c0.326,0,0.604-0.075,0.836-0.225
					c0.235-0.151,0.439-0.38,0.616-0.689c0.099-0.182,0.204-0.323,0.318-0.427c0.114-0.102,0.256-0.156,0.422-0.156
					c0.198,0,0.363,0.077,0.491,0.227C306.893,482.481,306.959,482.643,306.959,482.812"/>
				<path style="fill:#FFFFFF;" d="M313.953,481.524c0,0.481-0.076,0.928-0.222,1.337c-0.155,0.408-0.37,0.758-0.656,1.049
					c-0.284,0.293-0.626,0.518-1.02,0.675c-0.4,0.154-0.844,0.234-1.337,0.234c-0.491,0-0.933-0.08-1.326-0.239
					c-0.389-0.156-0.732-0.384-1.016-0.676c-0.288-0.298-0.505-0.646-0.657-1.048c-0.143-0.402-0.219-0.846-0.219-1.332
					c0-0.491,0.078-0.941,0.224-1.349c0.151-0.409,0.368-0.758,0.649-1.046c0.282-0.289,0.621-0.511,1.019-0.669
					c0.402-0.156,0.844-0.234,1.326-0.234c0.49,0,0.936,0.078,1.337,0.239c0.398,0.157,0.739,0.384,1.027,0.674
					c0.286,0.297,0.502,0.643,0.65,1.045C313.878,480.592,313.953,481.035,313.953,481.524 M312.326,481.524
					c0-0.662-0.146-1.176-0.436-1.543c-0.289-0.372-0.681-0.555-1.171-0.555c-0.317,0-0.597,0.082-0.839,0.246
					c-0.242,0.164-0.425,0.406-0.556,0.728c-0.131,0.321-0.197,0.696-0.197,1.124c0,0.424,0.064,0.792,0.194,1.108
					c0.13,0.319,0.314,0.561,0.553,0.729c0.241,0.167,0.522,0.253,0.845,0.253c0.49,0,0.882-0.185,1.171-0.557
					C312.18,482.688,312.326,482.175,312.326,481.524"/>
				<path style="fill:#FFFFFF;" d="M320.135,481.643v2.154c0,0.342-0.075,0.594-0.231,0.767c-0.156,0.17-0.357,0.255-0.611,0.255
					c-0.245,0-0.446-0.085-0.594-0.255c-0.154-0.173-0.233-0.425-0.233-0.767v-2.582c0-0.408-0.013-0.726-0.04-0.953
					c-0.029-0.221-0.105-0.41-0.226-0.552c-0.123-0.147-0.318-0.22-0.582-0.22c-0.532,0-0.88,0.181-1.048,0.55
					c-0.167,0.36-0.254,0.883-0.254,1.567v2.189c0,0.336-0.076,0.591-0.226,0.765c-0.156,0.171-0.355,0.257-0.603,0.257
					c-0.247,0-0.448-0.087-0.604-0.257c-0.157-0.173-0.235-0.428-0.235-0.765v-4.637c0-0.306,0.07-0.538,0.209-0.695
					c0.143-0.16,0.329-0.239,0.556-0.239c0.223,0,0.407,0.077,0.557,0.222c0.148,0.149,0.222,0.354,0.222,0.615v0.153
					c0.283-0.334,0.584-0.582,0.903-0.738c0.323-0.162,0.676-0.241,1.07-0.241c0.407,0,0.757,0.082,1.049,0.244
					c0.293,0.163,0.533,0.41,0.725,0.735c0.274-0.33,0.568-0.577,0.881-0.738c0.313-0.161,0.658-0.241,1.039-0.241
					c0.441,0,0.826,0.089,1.146,0.262c0.319,0.174,0.558,0.425,0.717,0.747c0.138,0.295,0.206,0.756,0.206,1.385v3.164
					c0,0.342-0.076,0.594-0.229,0.767c-0.154,0.17-0.359,0.255-0.612,0.255c-0.247,0-0.446-0.087-0.603-0.257
					c-0.156-0.173-0.235-0.428-0.235-0.765v-2.726c0-0.349-0.015-0.627-0.043-0.836c-0.029-0.211-0.11-0.388-0.239-0.529
					c-0.132-0.142-0.331-0.215-0.596-0.215c-0.214,0-0.416,0.066-0.609,0.192c-0.192,0.124-0.342,0.298-0.45,0.508
					C320.197,480.465,320.135,480.949,320.135,481.643"/>
			</g>
			<g>
				<path style="fill:#FFFFFF;" d="M244.695,481.132c-0.001-0.003-0.001-0.006-0.001-0.011
					C244.694,481.126,244.694,481.129,244.695,481.132z"/>
				<path style="fill:#FFFFFF;" d="M244.777,481.65c0.001,0,0.001,0,0.001,0c-0.031-0.148-0.055-0.294-0.074-0.439
					C244.724,481.357,244.748,481.504,244.777,481.65z"/>
				<path style="fill:#FFFFFF;" d="M245.313,483.154c-0.004-0.006-0.007-0.013-0.011-0.021
					C245.307,483.141,245.31,483.148,245.313,483.154z"/>
				<path style="fill:#FFFFFF;" d="M245.262,483.054c-0.014-0.027-0.027-0.056-0.041-0.084
					C245.235,483,245.248,483.026,245.262,483.054z"/>
				<path style="fill:#FFFFFF;" d="M244.928,482.229c0.079,0.25,0.175,0.493,0.286,0.724c-0.113-0.236-0.206-0.479-0.283-0.724
					C244.929,482.229,244.928,482.229,244.928,482.229z"/>
				<path style="fill:#FFFFFF;" d="M250.969,474.922c0.313,0,0.544,0.025,0.809,0.069l0.075-0.477c0,0-0.732-0.225-1.694-0.147
					l-0.076-0.259c0.299-0.063,0.524-0.329,0.524-0.646c0-0.364-0.296-0.659-0.661-0.659c-0.364,0-0.66,0.295-0.66,0.659
					c0,0.317,0.224,0.583,0.522,0.646l0.084,0.289c-1.021,0.14-1.834,0.539-1.834,0.539l0.144,0.441
					c0.618-0.206,1.154-0.331,1.64-0.383C250.318,474.944,250.676,474.922,250.969,474.922z"/>
				<path style="fill:#FFFFFF;" d="M245.301,477.333l0.004-0.005c0.024-0.031,0.047-0.06,0.071-0.089l-0.196-0.141l-0.305-0.223
					c-0.017,0.024-0.497,0.465-0.876,1.28c-0.016-0.026-0.035-0.051-0.056-0.074c-0.114-0.124-0.272-0.187-0.474-0.184
					c-0.003,0-0.006,0-0.009,0c-0.125,0-0.211-0.042-0.267-0.092c0.056-0.071,0.089-0.16,0.089-0.258
					c0-0.23-0.187-0.418-0.418-0.418c-0.23,0-0.418,0.188-0.418,0.418c0,0.231,0.187,0.418,0.418,0.418
					c0.036,0,0.071-0.006,0.104-0.013c0.103,0.114,0.266,0.214,0.505,0.209c0.123-0.001,0.213,0.03,0.273,0.097
					c0.069,0.076,0.093,0.185,0.1,0.267c-0.001,0.001-0.001,0.003-0.002,0.003c-0.272,0.743-0.194,1.669-0.194,1.669l0.661,0.026
					c0.013-0.337,0.062-0.926,0.232-1.394C244.872,477.923,245.285,477.357,245.301,477.333z"/>
				<path style="fill:#FFFFFF;" d="M256.718,475.474c-0.23,0-0.418,0.187-0.418,0.418c0,0.036,0.005,0.07,0.015,0.103
					c-0.115,0.104-0.214,0.267-0.211,0.507c0.002,0.123-0.03,0.212-0.096,0.273c-0.053,0.047-0.12,0.072-0.185,0.088
					c-0.492-0.689-1.097-1.11-1.097-1.11l-0.474,0.508c0.358,0.326,0.724,0.734,1.08,1.244c0.246,0.352,0.499,0.806,0.71,1.259
					l0.64-0.304c0,0-0.292-0.722-0.704-1.37c0.072-0.025,0.144-0.064,0.207-0.12c0.125-0.113,0.187-0.273,0.183-0.474
					c-0.001-0.13,0.042-0.218,0.093-0.276c0.071,0.054,0.16,0.089,0.257,0.089c0.232,0,0.419-0.187,0.419-0.418
					C257.137,475.661,256.95,475.474,256.718,475.474z"/>
				<path style="fill:#FFFFFF;" d="M255.057,481.225c-0.881,0.429-2.33,0.996-4.238,1.262c-0.749,0.104-1.475,0.142-2.143,0.142
					c-0.869,0-1.637-0.065-2.227-0.139c-0.673-0.085-1.199-0.188-1.52-0.261c0.077,0.245,0.171,0.488,0.283,0.724
					c0.002,0.006,0.005,0.013,0.008,0.017c0.013,0.027,0.027,0.056,0.041,0.084c0.013,0.027,0.027,0.054,0.041,0.079
					c0.004,0.007,0.007,0.015,0.011,0.021c0.189,0.357,0.417,0.684,0.675,0.968c0.9,0.985,1.817,1.14,1.826,1.141l0.014,0.002
					l0.013,0.005c0.008,0.003,0.821,0.266,2.057,0.266c1.216,0,2.409-0.245,3.546-0.729c0.842-0.431,1.639-1.085,2.034-1.669
					c0.305-0.452,0.526-0.933,0.656-1.434c0.07-0.266,0.124-0.692,0.092-1.141C255.98,480.73,255.588,480.967,255.057,481.225z"/>
				<path style="fill:#FFFFFF;" d="M245.584,477.542c-0.026,0.037-0.408,0.578-0.71,1.408c-0.226,0.622-0.216,1.527-0.216,1.538
					v0.002c0,0.212,0.012,0.423,0.035,0.632c0,0.005,0,0.008,0.001,0.011c0.002,0.027,0.007,0.052,0.009,0.079
					c0.019,0.145,0.043,0.291,0.074,0.439c0.438,0.111,3.049,0.72,5.968,0.314c1.829-0.255,3.218-0.795,4.062-1.204
					c0.701-0.34,1.151-0.648,1.325-0.774c-0.173-0.643-0.651-1.65-1.089-2.279c-1.253-1.791-2.604-2.25-3.298-2.365
					c-0.265-0.043-0.477-0.068-0.777-0.068c-0.28,0-0.626,0.022-1.09,0.071c-0.464,0.048-0.982,0.17-1.582,0.372
					c-0.842,0.282-1.605,0.724-2.204,1.28l-0.021,0.019C245.983,477.098,245.798,477.27,245.584,477.542z M253.252,477.125
					c0.601,0,1.09,0.488,1.09,1.089c0,0.601-0.489,1.09-1.09,1.09c-0.601,0-1.089-0.489-1.089-1.09
					C252.164,477.613,252.651,477.125,253.252,477.125z M248.102,477.082c0.973,0,1.76,0.789,1.76,1.761
					c0,0.972-0.788,1.759-1.76,1.759c-0.972,0-1.76-0.787-1.76-1.759C246.342,477.87,247.13,477.082,248.102,477.082z"/>
			</g>
		</g>
	</g>
	<g>
		<path style="fill:#192F46;" d="M187.732,242.85c-10.981,0-19.882-8.902-19.882-19.882c0-10.981,8.901-19.882,19.882-19.882"/>
		<path style="fill:#192F46;" d="M171.229,235.017h-0.394c-3.3,0-6-2.7-6-6v-11.755c0-3.3,2.7-6,6-6h0.394c3.3,0,6,2.7,6,6v11.755
			C177.229,232.317,174.529,235.017,171.229,235.017z"/>
		<path style="fill:#192F46;" d="M314.77,242.85c10.981,0,19.882-8.902,19.882-19.882c0-10.981-8.901-19.882-19.882-19.882"/>
		<path style="fill:#192F46;" d="M331.273,235.017h0.394c3.3,0,6-2.7,6-6v-11.755c0-3.3-2.7-6-6-6h-0.394c-3.3,0-6,2.7-6,6v11.755
			C325.273,232.317,327.973,235.017,331.273,235.017z"/>
		<g>
			<path style="fill:#192F46;" d="M317.77,242.625l-2.474,0.225h-3.526v-42.136c0-24.339-19.801-44.14-44.14-44.14h-32.909
				c-24.339,0-44.14,19.801-44.14,44.14v42.136h-3.064l-2.936-0.248v-41.888c0-27.647,22.493-50.14,50.14-50.14h32.909
				c27.647,0,50.14,22.493,50.14,50.14V242.625z"/>
		</g>
		<path style="fill:#192F46;" d="M273.263,154.167h-44.175v-2.708c0-2.761,2.239-5,5-5h34.175c2.762,0,5,2.239,5,5V154.167z"/>
		<path style="fill:#E33079;" d="M251.083,287.667L251.083,287.667c-2.603,0-4.713-2.11-4.713-4.713v-73.342
			c0-2.603,2.11-4.713,4.713-4.713l0,0c2.603,0,4.713,2.11,4.713,4.713v73.342C255.796,285.557,253.686,287.667,251.083,287.667z"/>
		<path style="fill:#F38AA8;" d="M237.866,277.947L237.866,277.947c-2.603,0-4.713-2.11-4.713-4.713v-73.341
			c0-2.603,2.11-4.713,4.713-4.713l0,0c2.603,0,4.713,2.11,4.713,4.713v73.341C242.578,275.837,240.468,277.947,237.866,277.947z"/>
		<path style="fill:#E33079;" d="M224.648,264.84L224.648,264.84c-2.603,0-4.713-2.11-4.713-4.713v-73.341
			c0-2.603,2.11-4.713,4.713-4.713l0,0c2.603,0,4.713,2.11,4.713,4.713v73.341C229.361,262.73,227.251,264.84,224.648,264.84z"/>
		<path style="fill:#F38AA8;" d="M211.43,253.794L211.43,253.794c-2.603,0-4.713-2.11-4.713-4.713v-51.251
			c0-2.603,2.11-4.713,4.713-4.713l0,0c2.603,0,4.713,2.11,4.713,4.713v51.251C216.143,251.684,214.033,253.794,211.43,253.794z"/>
		<path style="fill:#E33079;" d="M198.213,240.245L198.213,240.245c-2.603,0-4.713-2.11-4.713-4.713V211.38
			c0-2.603,2.11-4.713,4.713-4.713l0,0c2.603,0,4.713,2.11,4.713,4.713v24.153C202.925,238.135,200.815,240.245,198.213,240.245z"/>
		<path style="fill:#F38AA8;" d="M264.301,277.947L264.301,277.947c2.603,0,4.713-2.11,4.713-4.713v-73.341
			c0-2.603-2.11-4.713-4.713-4.713l0,0c-2.603,0-4.713,2.11-4.713,4.713v73.341C259.588,275.837,261.698,277.947,264.301,277.947z"
			/>
		<path style="fill:#E33079;" d="M277.519,264.84L277.519,264.84c2.603,0,4.713-2.11,4.713-4.713v-73.341
			c0-2.603-2.11-4.713-4.713-4.713h0c-2.603,0-4.713,2.11-4.713,4.713v73.341C272.806,262.73,274.916,264.84,277.519,264.84z"/>
		<path style="fill:#F38AA8;" d="M290.736,253.794L290.736,253.794c2.603,0,4.713-2.11,4.713-4.713v-51.251
			c0-2.603-2.11-4.713-4.713-4.713l0,0c-2.603,0-4.713,2.11-4.713,4.713v51.251C286.024,251.684,288.134,253.794,290.736,253.794z"
			/>
		<path style="fill:#E33079;" d="M303.954,240.245L303.954,240.245c2.603,0,4.713-2.11,4.713-4.713V211.38
			c0-2.603-2.11-4.713-4.713-4.713l0,0c-2.603,0-4.713,2.11-4.713,4.713v24.153C299.241,238.135,301.351,240.245,303.954,240.245z"
			/>
	</g>
</g>
</svg>
