<?xml version="1.0" encoding="utf-8"?>
<!-- Generator: Adobe Illustrator 27.5.0, SVG Export Plug-In . SVG Version: 6.00 Build 0)  -->
<svg version="1.1" xmlns="http://www.w3.org/2000/svg" xmlns:xlink="http://www.w3.org/1999/xlink" x="0px" y="0px"
	 viewBox="0 0 500 500" style="enable-background:new 0 0 500 500;" xml:space="preserve">
<g id="BACKGROUND">
	<rect style="fill:#B181F0;" width="500" height="500"/>
	<g>
		<g>
			<path style="fill:#C28CF3;" d="M249.327,153.47c-22.713,0-45.51,7.944-63.839,24.119c-39.922,35.232-43.738,96.378-8.506,136.3
				c19.056,21.594,45.698,32.624,72.458,32.626c22.714,0,45.512-7.944,63.841-24.12c19.339-17.067,30.876-40.645,32.482-66.388
				c1.607-25.743-6.908-50.572-23.975-69.912C302.73,164.502,276.087,153.47,249.327,153.47z M307.077,315.366
				c-36.105,31.863-91.203,28.424-123.065-7.681c-31.863-36.104-28.424-91.203,7.68-123.066
				c36.104-31.863,91.203-28.423,123.065,7.681C346.62,228.405,343.182,283.503,307.077,315.366z"/>
			<path style="fill:#C28CF3;" d="M417.678,101.472c-3.194-3.605-6.514-7.083-9.865-10.466c-3.131-3.099-6.324-6.103-9.581-8.98
				c-8.348-7.462-17.17-14.197-26.371-20.174C289.459,8.13,178.252,13.474,100.878,81.741
				c-25.928,22.861-45.311,50.434-57.991,80.252c-32.79,77.089-20.932,169.514,38.229,236.517c0.316,0.379,0.633,0.696,0.98,1.075
				c82.148,91.919,223.236,100.392,315.788,18.719c36.742-32.442,60.362-74.243,70.418-118.733
				C483.605,231.714,467.226,157.66,417.678,101.472z M287.482,44.999c0.766-6.338,8.621-5.99,13.111-5.104
				c7.063,1.394,14.614,3.048,19.536,8.303c0.469,0.501,0.92,1.05,1.117,1.708c0.318,1.057-0.086,2.225-0.773,3.088
				c-2.213,2.776-6.418,2.569-9.938,2.106c-3.137-0.413-6.276-0.827-9.413-1.24C296.418,53.238,286.669,51.721,287.482,44.999z
				 M176.52,48.637c4.275-5.138,18.102-9.214,21.274-10c12.751-3.161,25.94-4.839,39.085-4.817
				c11.791,0.018,24.308,0.033,35.147,5.299c1.539,0.747,3.182,1.799,3.518,3.477c0.324,1.614-0.761,3.249-2.178,4.089
				c-2.426,1.438-6.144,1.736-8.884,2.351c-3.41,0.765-6.83,1.484-10.258,2.156c-6.711,1.314-13.46,2.443-20.237,3.359
				c-13.524,1.829-27.174,2.817-40.824,2.684c-5.035-0.049-11.381,0.075-15.903-2.502c-0.633-0.36-1.247-0.815-1.582-1.462
				C174.853,51.674,175.294,50.111,176.52,48.637z M315.762,325.206c-19.039,16.801-42.727,25.057-66.32,25.057
				c-27.802,0-55.473-11.458-75.271-33.892c-36.6-41.474-32.636-104.991,8.837-141.592c41.473-36.6,104.99-32.636,141.59,8.837
				C361.199,225.088,357.235,288.605,315.762,325.206z"/>
		</g>
		<path style="fill:#C28CF3;" d="M260.047,262.074c-6.673,5.889-16.856,5.253-22.745-1.419c-5.889-6.673-5.253-16.855,1.42-22.744
			c6.672-5.889,16.855-5.253,22.744,1.419C267.355,246.003,266.719,256.186,260.047,262.074z"/>
	</g>
</g>
<g id="OBJECTS">
	<g>
		<path style="fill:none;stroke:#EFBC47;stroke-width:5;stroke-linecap:round;stroke-linejoin:round;stroke-miterlimit:10;" d="
			M322.692,355.608c4.041-2.812,7.967-5.877,11.748-9.213c21.044-18.581,34.573-42.523,40.332-68.004
			c8.765-38.864-0.616-81.279-28.995-113.461c-1.829-2.065-3.731-4.057-5.65-5.995c-1.793-1.775-3.622-3.495-5.487-5.143
			c-2.592-2.317-5.269-4.5-8.012-6.569"/>
		<path style="fill:none;stroke:#EFBC47;stroke-width:5;stroke-linecap:round;stroke-linejoin:round;stroke-miterlimit:10;" d="
			M172.208,147.223c-2.684,2.02-5.317,4.146-7.879,6.406c-14.85,13.094-25.952,28.886-33.214,45.964
			c-18.78,44.153-11.989,97.09,21.895,135.465c0.181,0.217,0.362,0.398,0.561,0.616c6.849,7.664,14.418,14.307,22.508,19.934"/>
	</g>
	<g>
		<g>
			<polygon style="fill:#9FEEDD;" points="383.744,204.772 388.056,325.439 307.843,325.439 286.652,324.486 296.937,202.451 
				312.872,202.883 			"/>
			<polygon style="fill:#56B29C;" points="312.872,202.883 307.843,325.439 286.652,324.486 296.937,202.451 			"/>
			<g>
				<g>
					
						<ellipse transform="matrix(0.1908 -0.9816 0.9816 0.1908 56.8872 532.3127)" style="fill:#282130;" cx="351.323" cy="231.651" rx="17.471" ry="17.471"/>
					<path style="fill:none;stroke:#FFFFFF;stroke-width:0.2851;stroke-miterlimit:10;" d="M367.015,230.647
						c0.555,8.666-6.022,16.141-14.688,16.695c-8.666,0.554-16.141-6.022-16.696-14.688c-0.554-8.666,6.022-16.141,14.688-16.695
						C358.986,215.405,366.461,221.981,367.015,230.647z"/>
					<path style="fill:#F5E84E;" d="M358.297,231.205c0.246,3.852-2.676,7.174-6.528,7.42c-3.852,0.246-7.174-2.676-7.42-6.528
						c-0.246-3.852,2.676-7.174,6.528-7.42C354.729,224.43,358.051,227.353,358.297,231.205z"/>
				</g>
				<g>
					
						<ellipse transform="matrix(0.9996 -0.0283 0.0283 0.9996 -7.9353 10.0425)" style="fill:#282130;" cx="351.281" cy="285.73" rx="24.362" ry="24.362"/>
					
						<ellipse transform="matrix(0.946 -0.3243 0.3243 0.946 -73.6714 129.3476)" style="fill:none;stroke:#FFFFFF;stroke-width:0.3976;stroke-miterlimit:10;" cx="351.281" cy="285.73" rx="21.926" ry="21.926"/>
					<path style="fill:#E55A48;" d="M361.403,285.082c0.358,5.59-3.884,10.412-9.475,10.77c-5.59,0.357-10.412-3.884-10.77-9.475
						c-0.358-5.59,3.884-10.412,9.475-10.77C356.224,275.25,361.046,279.492,361.403,285.082z"/>
				</g>
			</g>
			<g>
				<path style="fill:#B181F0;" d="M320.494,207.363c0.072,1.123-0.78,2.092-1.904,2.164c-1.123,0.072-2.092-0.781-2.164-1.904
					c-0.072-1.124,0.78-2.092,1.904-2.164C319.454,205.387,320.423,206.239,320.494,207.363z"/>
				<path style="fill:#B181F0;" d="M382.008,208.826c0.072,1.123-0.781,2.092-1.904,2.164c-1.123,0.072-2.092-0.781-2.164-1.904
					c-0.072-1.123,0.781-2.092,1.904-2.164C380.967,206.85,381.936,207.703,382.008,208.826z"/>
				<path style="fill:#B181F0;" d="M385.553,320.475c0.072,1.124-0.781,2.092-1.904,2.164c-1.123,0.072-2.092-0.781-2.164-1.904
					c-0.072-1.123,0.781-2.092,1.904-2.164C384.512,318.499,385.481,319.352,385.553,320.475z"/>
				<path style="fill:#B181F0;" d="M315.183,320.475c0.072,1.123-0.781,2.092-1.904,2.164c-1.124,0.072-2.092-0.781-2.164-1.904
					c-0.072-1.123,0.781-2.092,1.904-2.164C314.142,318.499,315.111,319.352,315.183,320.475z"/>
			</g>
		</g>
		<g>
			<polygon style="fill:#9FEEDD;" points="116.256,204.772 111.944,325.439 192.157,325.439 213.348,324.486 203.063,202.451 
				187.128,202.883 			"/>
			<polygon style="fill:#56B29C;" points="187.128,202.883 192.157,325.439 213.348,324.486 203.063,202.451 			"/>
			<g>
				<g>
					
						<ellipse transform="matrix(0.9816 -0.1908 0.1908 0.9816 -41.4732 32.6285)" style="fill:#282130;" cx="148.677" cy="231.651" rx="17.471" ry="17.471"/>
					<path style="fill:none;stroke:#FFFFFF;stroke-width:0.2851;stroke-miterlimit:10;" d="M132.985,230.647
						c-0.555,8.666,6.022,16.141,14.688,16.695s16.141-6.022,16.696-14.688c0.554-8.666-6.022-16.141-14.688-16.695
						C141.014,215.405,133.539,221.981,132.985,230.647z"/>
					<path style="fill:#F5E84E;" d="M141.703,231.205c-0.246,3.852,2.676,7.174,6.528,7.42c3.852,0.246,7.174-2.676,7.42-6.528
						c0.246-3.852-2.676-7.174-6.528-7.42C145.271,224.43,141.949,227.353,141.703,231.205z"/>
				</g>
				<g>
					
						<ellipse transform="matrix(0.6363 -0.7715 0.7715 0.6363 -166.3358 218.6523)" style="fill:#282130;" cx="148.719" cy="285.73" rx="24.362" ry="24.362"/>
					<path style="fill:none;stroke:#FFFFFF;stroke-width:0.3976;stroke-miterlimit:10;" d="M126.838,284.331
						c-0.773,12.085,8.397,22.508,20.482,23.281c12.085,0.773,22.508-8.397,23.281-20.482c0.773-12.085-8.397-22.508-20.482-23.281
						C138.034,263.076,127.61,272.246,126.838,284.331z"/>
					<path style="fill:#E55A48;" d="M138.597,285.082c-0.358,5.59,3.884,10.412,9.475,10.77c5.59,0.357,10.412-3.884,10.77-9.475
						c0.357-5.59-3.884-10.412-9.475-10.77C143.776,275.25,138.954,279.492,138.597,285.082z"/>
				</g>
			</g>
			<g>
				<path style="fill:#B181F0;" d="M179.506,207.363c-0.072,1.123,0.781,2.092,1.904,2.164c1.123,0.072,2.092-0.781,2.164-1.904
					c0.072-1.124-0.781-2.092-1.904-2.164C180.546,205.387,179.577,206.239,179.506,207.363z"/>
				<path style="fill:#B181F0;" d="M117.992,208.826c-0.072,1.123,0.781,2.092,1.904,2.164c1.124,0.072,2.092-0.781,2.164-1.904
					c0.072-1.123-0.78-2.092-1.904-2.164C119.033,206.85,118.064,207.703,117.992,208.826z"/>
				<path style="fill:#B181F0;" d="M114.447,320.475c-0.072,1.124,0.781,2.092,1.904,2.164c1.123,0.072,2.092-0.781,2.164-1.904
					c0.072-1.123-0.781-2.092-1.904-2.164C115.488,318.499,114.519,319.352,114.447,320.475z"/>
				<path style="fill:#B181F0;" d="M184.817,320.475c-0.072,1.123,0.781,2.092,1.904,2.164c1.124,0.072,2.092-0.781,2.164-1.904
					c0.072-1.123-0.781-2.092-1.904-2.164C185.858,318.499,184.889,319.352,184.817,320.475z"/>
			</g>
		</g>
		<g>
			<defs>
				<rect id="SVGID_1_" x="178.513" y="83.149" width="42.723" height="272.459"/>
			</defs>
			<clipPath id="SVGID_00000003792114292264221270000014702565466513045386_">
				<use xlink:href="#SVGID_1_"  style="overflow:visible;"/>
			</clipPath>
			<g style="clip-path:url(#SVGID_00000003792114292264221270000014702565466513045386_);">
				<g>
					<path style="fill:#282130;" d="M260.516,134.379c0.02,22.075-17.858,39.987-39.933,40.007
						c-22.075,0.02-39.987-17.858-40.007-39.933c-0.02-22.075,8.702-48.099,39.152-47.78
						C248.843,86.978,260.495,112.304,260.516,134.379z"/>
					<path style="fill:#413C48;" d="M238.245,345.118c0,0-5.104,5.195-16.903,5.206c-11.162,0.01-16.784-5.175-16.784-5.175
						l-8.599-178.278l50.556-0.047L238.245,345.118z"/>
					<path style="fill:#F2D24B;" d="M190.076,160.309c0,0,22.117,8.641,60.72,0.177l-4.409,6.202c0,0-18.736,7.42-50.555,0.108
						L190.076,160.309z"/>
					<path style="fill:#413C48;" d="M261.45,137.119c0,0-15.684,3.976-40.855,3.999c-25.92,0.024-41.004-3.923-41.004-3.923
						l-0.005-5.801c0,0,16.882,3.946,41.154,3.923c26.37-0.024,40.705-3.999,40.705-3.999L261.45,137.119z"/>
				</g>
				<path style="fill:#EFBC47;" d="M209.329,207.924l0.676,0.022c2.757,0.089,4.944,2.352,4.939,5.11l-0.053,29.277
					c-0.005,3.02-2.617,5.375-5.622,5.068l0,0c-2.563-0.261-4.529-2.393-4.584-4.968l-0.623-29.299
					C204,210.209,206.405,207.83,209.329,207.924z"/>
				<polygon style="fill:#282130;" points="213.503,236.579 205.849,236.36 206.089,242.048 213.435,242.346 				"/>
			</g>
		</g>
		<g>
			<defs>
				
					<rect id="SVGID_00000155831043649260661060000000660362245034273177_" x="279.068" y="83.149" width="40.953" height="272.459"/>
			</defs>
			<clipPath id="SVGID_00000000206781975399023640000008026179106514552982_">
				<use xlink:href="#SVGID_00000155831043649260661060000000660362245034273177_"  style="overflow:visible;"/>
			</clipPath>
			<g style="clip-path:url(#SVGID_00000000206781975399023640000008026179106514552982_);">
				<g>
					<path style="fill:#282130;" d="M318.347,134.379c0.02,22.075-17.858,39.987-39.933,40.007
						c-22.075,0.02-39.987-17.858-40.007-39.933c-0.02-22.075,8.702-48.099,39.152-47.78
						C306.674,86.978,318.327,112.304,318.347,134.379z"/>
					<path style="fill:#413C48;" d="M296.076,345.118c0,0-5.104,5.195-16.903,5.206c-11.162,0.01-16.784-5.175-16.784-5.175
						l-8.599-178.278l50.556-0.047L296.076,345.118z"/>
					<path style="fill:#F2D24B;" d="M247.908,160.309c0,0,22.117,8.641,60.72,0.177l-4.409,6.202c0,0-18.736,7.42-50.555,0.108
						L247.908,160.309z"/>
					<path style="fill:#413C48;" d="M319.281,137.119c0,0-15.684,3.976-40.855,3.999c-25.92,0.024-41.004-3.923-41.004-3.923
						l-0.005-5.801c0,0,16.882,3.946,41.154,3.923c26.37-0.024,40.705-3.999,40.705-3.999L319.281,137.119z"/>
				</g>
				<path style="fill:#EFBC47;" d="M267.161,207.924l0.676,0.022c2.757,0.089,4.944,2.352,4.939,5.11l-0.053,29.277
					c-0.005,3.02-2.617,5.375-5.622,5.068l0,0c-2.563-0.261-4.529-2.393-4.584-4.968l-0.624-29.299
					C261.832,210.209,264.236,207.83,267.161,207.924z"/>
				<polygon style="fill:#F2D24B;" points="271.335,236.579 263.68,236.36 263.921,242.048 271.266,242.346 				"/>
			</g>
		</g>
	</g>
	<g>
		<polygon style="fill:#F5E84E;" points="353.548,351.72 369.767,351.464 348.784,373.425 362.149,373.214 330.083,406.765 
			345.629,382.938 330.312,383.179 		"/>
		<polygon style="fill:#F5E84E;" points="145.384,351.72 129.165,351.464 150.148,373.425 136.783,373.214 168.849,406.765 
			153.303,382.938 168.621,383.179 		"/>
	</g>
</g>
<g id="TEXTS">
	<g>
		<g>
			<text transform="matrix(1.0052 0 0 1 229.2718 149.6399)"><tspan x="0" y="0" style="fill:#E8808D; font-family:'RammettoOne-Regular'; font-size:59.4993px;">O</tspan><tspan x="4.671" y="65.06" style="fill:#E8808D; font-family:'RammettoOne-Regular'; font-size:59.4993px;">P</tspan><tspan x="5.861" y="130.121" style="fill:#E8808D; font-family:'RammettoOne-Regular'; font-size:59.4993px;">E</tspan><tspan x="0.922" y="195.18" style="fill:#E8808D; font-family:'RammettoOne-Regular'; font-size:59.4993px;">N</tspan></text>
		</g>
		<g>
			<text transform="matrix(1.0052 0 0 1 229.2718 141.6881)"><tspan x="0" y="0" style="fill:#F5E84E; font-family:'RammettoOne-Regular'; font-size:59.4993px;">O</tspan><tspan x="4.671" y="65.06" style="fill:#F5E84E; font-family:'RammettoOne-Regular'; font-size:59.4993px;">P</tspan><tspan x="5.861" y="130.121" style="fill:#F5E84E; font-family:'RammettoOne-Regular'; font-size:59.4993px;">E</tspan><tspan x="0.922" y="195.18" style="fill:#F5E84E; font-family:'RammettoOne-Regular'; font-size:59.4993px;">N</tspan></text>
		</g>
	</g>
	<g>
		<g>
			
				<text transform="matrix(1.0052 0 0 1 207.2186 406.0248)" style="fill:#E8808D; font-family:'RammettoOne-Regular'; font-size:52.4446px;">MIC</text>
		</g>
		<g>
			
				<text transform="matrix(1.0052 0 0 1 207.2186 399.0158)" style="fill:#282130; font-family:'RammettoOne-Regular'; font-size:52.4446px;">MIC</text>
		</g>
	</g>
</g>
</svg>
