<?xml version="1.0" encoding="utf-8"?>
<!-- Generator: Adobe Illustrator 27.5.0, SVG Export Plug-In . SVG Version: 6.00 Build 0)  -->
<svg version="1.1" xmlns="http://www.w3.org/2000/svg" xmlns:xlink="http://www.w3.org/1999/xlink" x="0px" y="0px"
	 viewBox="0 0 1200 1200" style="enable-background:new 0 0 1200 1200;" xml:space="preserve">
<g id="Background">
	<rect style="fill:#DBD112;" width="1200" height="1200"/>
</g>
<g id="Graphic_Elements">
	<g>
		<path style="fill:#FFFFFF;" d="M600.082,244.289L600.082,244.289c-116.15,0-210.309,94.158-210.309,210.308v262.17h420.617
			v-262.17C810.391,338.447,716.232,244.289,600.082,244.289z"/>
		<g>
			
				<line style="fill:none;stroke:#4A56F8;stroke-width:18;stroke-miterlimit:10;" x1="472.815" y1="287.73" x2="472.815" y2="716.767"/>
			
				<line style="fill:none;stroke:#4A56F8;stroke-width:18;stroke-miterlimit:10;" x1="600.082" y1="244.289" x2="600.082" y2="716.767"/>
			
				<line style="fill:none;stroke:#4A56F8;stroke-width:18;stroke-miterlimit:10;" x1="727.35" y1="287.156" x2="727.35" y2="716.767"/>
		</g>
		<path style="fill:#4A56F8;" d="M509.004,202.834h-72.38v323.199c0,19.987,16.203,36.19,36.19,36.19h0
			c19.987,0,36.19-16.203,36.19-36.19V202.834z"/>
		<path style="fill:#4A56F8;" d="M636.272,202.834h-72.38v281.744c0,19.987,16.203,36.19,36.19,36.19l0,0
			c19.987,0,36.19-16.203,36.19-36.19V202.834z"/>
		<path style="fill:#4A56F8;" d="M760.525,202.834h-72.38v323.199c0,19.987,16.203,36.19,36.19,36.19h0
			c19.987,0,36.19-16.203,36.19-36.19V202.834z"/>
		<circle style="fill:#4A56F8;" cx="724.336" cy="405.262" r="22.733"/>
		
			<ellipse transform="matrix(0.1591 -0.9873 0.9873 0.1591 -173.1971 1053.3827)" style="fill:#4A56F8;" cx="531.738" cy="628.358" rx="22.733" ry="22.733"/>
	</g>
</g>
<g id="Text">
	
		<text transform="matrix(1 0 0 1 413.0601 851.3689)" style="fill:#222221; font-family:'Nunito-ExtraBold'; font-size:111px; letter-spacing:13;">MUSIC</text>
	
		<text transform="matrix(1 0 0 1 361.3343 952.0857)" style="fill:#222221; font-family:'Nunito-ExtraBold'; font-size:111px; letter-spacing:13;">SCHOOL</text>
</g>
</svg>
